<svg width="660" height="124" viewBox="0 0 660 124" fill="none" xmlns="http://www.w3.org/2000/svg">
<path d="M646.103 95.5439C648.007 95.5439 649.802 95.9194 651.49 96.6702C653.178 97.3852 654.65 98.3863 655.907 99.6735C657.164 100.925 658.151 102.409 658.869 104.125C659.624 105.805 660.001 107.611 660.001 109.541C660.001 111.472 659.624 113.295 658.869 115.012C658.151 116.692 657.164 118.176 655.907 119.463C654.65 120.714 653.178 121.715 651.49 122.466C649.802 123.181 648.007 123.539 646.103 123.539C644.164 123.539 642.351 123.181 640.663 122.466C638.975 121.715 637.503 120.714 636.246 119.463C634.989 118.176 633.984 116.692 633.23 115.012C632.511 113.295 632.152 111.472 632.152 109.541C632.152 107.611 632.511 105.805 633.23 104.125C633.984 102.409 634.989 100.925 636.246 99.6735C637.503 98.3863 638.975 97.3852 640.663 96.6702C642.351 95.9194 644.164 95.5439 646.103 95.5439ZM646.103 117.05C647.001 117.05 647.827 116.871 648.581 116.513C649.371 116.156 650.054 115.673 650.628 115.065C651.239 114.422 651.705 113.671 652.029 112.813C652.388 111.919 652.567 110.936 652.567 109.863C652.567 108.791 652.388 107.789 652.029 106.86C651.705 105.93 651.239 105.126 650.628 104.447C650.054 103.731 649.371 103.177 648.581 102.784C647.827 102.355 647.001 102.14 646.103 102.14C645.206 102.14 644.362 102.355 643.572 102.784C642.782 103.177 642.081 103.731 641.471 104.447C640.896 105.126 640.43 105.93 640.071 106.86C639.747 107.789 639.586 108.791 639.586 109.863C639.586 110.936 639.747 111.919 640.071 112.813C640.43 113.671 640.896 114.422 641.471 115.065C642.081 115.673 642.782 116.156 643.572 116.513C644.362 116.871 645.206 117.05 646.103 117.05Z" fill="#4285F4"/>
<path d="M629.975 122.896H622.541V96.2956H629.975V122.896ZM626.258 92.6487C625.109 92.6487 624.139 92.2555 623.349 91.4689C622.559 90.6823 622.164 89.717 622.164 88.5729C622.164 87.4288 622.559 86.4634 623.349 85.6768C624.139 84.8545 625.109 84.4434 626.258 84.4434C627.407 84.4434 628.377 84.8545 629.167 85.6768C629.957 86.4634 630.352 87.4288 630.352 88.5729C630.352 89.717 629.957 90.6823 629.167 91.4689C628.377 92.2555 627.407 92.6487 626.258 92.6487Z" fill="#4285F4"/>
<path d="M620.288 83.7461V122.896H613.932L612.855 120.59C612.029 121.448 610.879 122.163 609.407 122.735C607.971 123.271 606.463 123.54 604.882 123.54C602.979 123.54 601.22 123.182 599.604 122.467C597.988 121.716 596.587 120.715 595.402 119.464C594.253 118.177 593.337 116.693 592.655 115.012C592.009 113.296 591.686 111.473 591.686 109.542C591.686 107.611 592.009 105.806 592.655 104.125C593.337 102.409 594.253 100.926 595.402 99.6742C596.587 98.3871 597.988 97.386 599.604 96.6709C601.22 95.9201 602.979 95.5447 604.882 95.5447C606.57 95.5447 608.061 95.7413 609.353 96.1346C610.682 96.5279 611.849 97.1893 612.855 98.1189V83.7461H620.288ZM612.855 109.649C612.855 108.255 612.675 107.093 612.316 106.163C611.957 105.198 611.454 104.429 610.808 103.857C610.161 103.25 609.407 102.82 608.545 102.57C607.719 102.284 606.822 102.141 605.852 102.141C604.882 102.141 603.967 102.338 603.105 102.731C602.279 103.124 601.543 103.661 600.896 104.34C600.286 104.984 599.801 105.77 599.442 106.7C599.083 107.594 598.903 108.541 598.903 109.542C598.903 110.579 599.083 111.544 599.442 112.438C599.801 113.332 600.286 114.119 600.896 114.798C601.543 115.441 602.279 115.96 603.105 116.353C603.967 116.746 604.882 116.943 605.852 116.943C607.791 116.943 609.425 116.353 610.754 115.173C612.118 113.958 612.819 112.116 612.855 109.649Z" fill="#4285F4"/>
<path d="M582.231 96.2959H589.665V122.896H583.309L582.231 120.858C581.37 121.466 580.382 121.967 579.269 122.36C578.192 122.718 577.025 122.896 575.768 122.896C574.798 122.896 573.685 122.753 572.428 122.467C571.207 122.181 570.058 121.645 568.981 120.858C567.903 120.072 566.988 118.981 566.234 117.587C565.515 116.193 565.156 114.387 565.156 112.17V96.2959H572.644V111.902C572.644 112.725 572.769 113.422 573.021 113.994C573.308 114.566 573.667 115.031 574.098 115.388C574.565 115.71 575.085 115.96 575.66 116.139C576.235 116.282 576.827 116.353 577.437 116.353C577.904 116.353 578.407 116.282 578.946 116.139C579.52 115.96 580.041 115.692 580.508 115.335C581.011 114.977 581.424 114.512 581.747 113.94C582.07 113.368 582.231 112.689 582.231 111.902V96.2959Z" fill="#4285F4"/>
<path d="M558.463 113.349C558.463 114.6 558.84 115.566 559.594 116.245C560.384 116.924 561.408 117.264 562.664 117.264C563.67 117.264 564.675 117.067 565.681 116.674V122.895C564.783 123.181 563.831 123.414 562.826 123.592C561.82 123.807 560.815 123.914 559.81 123.914C558.66 123.914 557.565 123.771 556.524 123.485C555.482 123.199 554.549 122.716 553.723 122.037C552.897 121.322 552.232 120.392 551.73 119.248C551.263 118.068 551.03 116.62 551.03 114.904V102.891H547.205V97.9036L551.03 96.2947V90.3418H558.463V96.2947H565.681V102.891H558.463V113.349Z" fill="#4285F4"/>
<path d="M543.575 108.952C545.55 110.346 546.538 112.33 546.538 114.905C546.538 116.084 546.25 117.193 545.676 118.23C545.137 119.266 544.383 120.178 543.414 120.965C542.444 121.751 541.313 122.377 540.02 122.842C538.727 123.271 537.345 123.485 535.872 123.485C534.759 123.485 533.664 123.342 532.587 123.056C531.545 122.77 530.576 122.377 529.678 121.876C528.78 121.376 527.99 120.786 527.308 120.107C526.661 119.392 526.177 118.605 525.854 117.747C526.679 117.354 527.595 116.925 528.601 116.46C529.606 115.959 530.486 115.512 531.24 115.119C531.563 115.655 532.066 116.156 532.748 116.621C533.431 117.05 534.364 117.264 535.549 117.264C536.77 117.264 537.668 116.978 538.242 116.406C538.817 115.834 539.104 115.298 539.104 114.797C539.104 114.44 538.907 114.118 538.512 113.832C538.117 113.51 537.668 113.26 537.165 113.081C536.447 112.795 535.854 112.652 535.388 112.652C534.921 112.616 534.382 112.509 533.772 112.33C531.833 111.865 530.342 111.258 529.301 110.507C528.295 109.72 527.559 108.934 527.092 108.147C526.626 107.361 526.356 106.61 526.284 105.895C526.249 105.18 526.231 104.608 526.231 104.179C526.231 103.034 526.482 101.944 526.985 100.907C527.487 99.8703 528.17 98.9764 529.032 98.2256C529.929 97.439 530.953 96.8133 532.102 96.3486C533.287 95.8838 534.544 95.6514 535.872 95.6514C536.986 95.6514 538.045 95.8123 539.05 96.134C540.056 96.4558 540.972 96.9027 541.798 97.4748C542.624 98.0468 543.324 98.7261 543.898 99.5127C544.509 100.299 544.958 101.175 545.245 102.141L539.481 104.071C539.266 103.428 538.817 102.909 538.135 102.516C537.488 102.123 536.788 101.926 536.034 101.926C535.28 101.926 534.669 102.176 534.203 102.677C533.736 103.177 533.502 103.678 533.502 104.179C533.502 104.786 533.718 105.269 534.149 105.627C534.616 105.948 535.118 106.181 535.657 106.324C536.052 106.395 536.429 106.467 536.788 106.538C537.183 106.574 537.56 106.628 537.919 106.699C539.176 106.985 540.253 107.307 541.151 107.664C542.085 108.022 542.893 108.451 543.575 108.952Z" fill="#4285F4"/>
<path d="M133.213 123.914C126.624 123.914 120.723 122.297 115.511 119.063C110.397 115.83 106.316 111.42 103.267 105.835C100.317 100.25 98.8418 93.8805 98.8418 86.7274C98.8418 79.5743 100.317 73.2051 103.267 67.6198C106.316 62.0345 110.397 57.625 115.511 54.3914C120.723 51.1578 126.624 49.541 133.213 49.541C138.032 49.541 142.359 50.4719 146.194 52.3337C150.128 54.1954 153.324 56.7921 155.783 60.1237C158.242 63.3573 159.618 67.0808 159.913 71.2943V102.16C159.618 106.374 158.242 110.146 155.783 113.478C153.423 116.712 150.276 119.259 146.342 121.121C142.408 122.983 138.032 123.914 133.213 123.914ZM137.786 103.63C142.605 103.63 146.489 102.062 149.44 98.9269C152.39 95.6933 153.865 91.6268 153.865 86.7274C153.865 83.3958 153.177 80.4562 151.8 77.9085C150.522 75.3608 148.653 73.401 146.194 72.0292C143.834 70.5594 141.08 69.8245 137.933 69.8245C134.786 69.8245 131.984 70.5594 129.525 72.0292C127.165 73.401 125.247 75.3608 123.772 77.9085C122.395 80.4562 121.707 83.3958 121.707 86.7274C121.707 89.961 122.395 92.8516 123.772 95.3993C125.149 97.947 127.066 99.9557 129.525 101.426C131.984 102.895 134.737 103.63 137.786 103.63ZM157.98 122.444C155.219 122.444 152.98 120.205 152.98 117.444V103.674C152.98 103.352 153.011 103.03 153.073 102.714L156.185 86.8054C156.309 86.1715 156.309 85.5195 156.185 84.8856L153.073 68.9771C153.011 68.6609 152.98 68.3394 152.98 68.0172V56.0108C152.98 53.2494 155.219 51.0108 157.98 51.0108H170.107C172.869 51.0108 175.107 53.2494 175.107 56.0108V117.444C175.107 120.205 172.869 122.444 170.107 122.444H157.98Z" fill="#4285F4"/>
<path d="M186.812 123.914C184.051 123.914 181.812 121.675 181.812 118.914V57.4806C181.812 54.7191 184.051 52.4806 186.813 52.4806H199.382C202.144 52.4806 204.382 54.7191 204.382 57.4806V118.914C204.382 121.675 202.144 123.914 199.382 123.914H186.812ZM232.69 123.914C229.928 123.914 227.69 121.675 227.69 118.914V82.1709C227.69 78.5453 226.559 75.7527 224.297 73.7929C222.133 71.7352 219.429 70.7063 216.184 70.7063C213.922 70.7063 211.906 71.1962 210.136 72.1761C208.365 73.058 206.939 74.3318 205.858 75.9976V75.9976C204.318 78.6048 201.273 80.8056 198.501 79.5884L198.281 79.4919C196.7 78.7977 195.653 77.2312 195.787 75.5096C196.135 71.0331 197.328 67.1293 199.367 63.7981C201.825 59.6827 205.169 56.547 209.398 54.3913C213.627 52.1376 218.396 51.0107 223.707 51.0107C228.723 51.0107 233.197 52.1376 237.131 54.3913C241.163 56.645 244.359 59.7806 246.719 63.7981C249.08 67.8156 250.26 72.617 250.26 78.2024V118.914C250.26 121.675 248.021 123.914 245.26 123.914H232.69ZM278.567 123.914C275.806 123.914 273.567 121.675 273.567 118.914V82.1709C273.567 78.5453 272.436 75.7527 270.174 73.7929C268.011 71.7352 265.306 70.7063 262.061 70.7063C259.799 70.7063 257.783 71.1962 256.013 72.1761C254.243 73.058 252.817 74.3318 251.735 75.9976C251.617 76.1967 251.507 76.4015 251.403 76.6118C250.066 79.3295 247.588 81.8078 244.587 81.4L241.749 81.0144C239.209 80.6694 237.299 78.4508 237.671 75.915C238.286 71.7308 239.581 68.0348 241.556 64.827C244.31 60.4176 247.9 57.037 252.325 54.6853C256.849 52.2356 261.914 51.0107 267.519 51.0107C273.026 51.0107 277.894 52.1866 282.123 54.5383C286.45 56.792 289.843 60.0746 292.302 64.3861C294.859 68.5995 296.137 73.6949 296.137 79.6722V118.914C296.137 121.675 293.899 123.914 291.137 123.914H278.567Z" fill="#4285F4"/>
<path d="M307.844 123.914C305.082 123.914 302.844 121.675 302.844 118.914V57.4805C302.844 54.719 305.082 52.4805 307.844 52.4805H320.414C323.175 52.4805 325.414 54.719 325.414 57.4805V118.914C325.414 121.675 323.175 123.914 320.414 123.914H307.844Z" fill="#4285F4"/>
<path d="M384.472 123.914C381.71 123.914 379.472 121.675 379.472 118.914V83.1997C379.472 79.4762 378.292 76.4876 375.931 74.2338C373.669 71.8821 370.768 70.7063 367.228 70.7063C364.769 70.7063 362.606 71.2452 360.737 72.3231C358.869 73.303 357.394 74.7728 356.312 76.7325V76.7325C354.748 79.4244 351.426 81.6015 348.63 80.2322L348.423 80.1311C346.931 79.4004 345.961 77.8815 346.086 76.2251C346.425 71.7518 347.621 67.7564 349.674 64.2391C352.132 60.0256 355.525 56.792 359.852 54.5383C364.278 52.1866 369.244 51.0107 374.751 51.0107C380.062 51.0107 384.733 52.2846 388.765 54.8323C392.896 57.282 396.141 60.5646 398.501 64.68C400.862 68.7955 402.042 73.303 402.042 78.2024V118.914C402.042 121.675 399.803 123.914 397.042 123.914H384.472ZM337.119 123.914C334.358 123.914 332.119 121.675 332.119 118.914V57.4806C332.119 54.7191 334.358 52.4806 337.119 52.4806H349.689C352.45 52.4806 354.689 54.7191 354.689 57.4806V118.914C354.689 121.675 352.45 123.914 349.689 123.914H337.119Z" fill="#4285F4"/>
<path d="M443.117 123.914C436.528 123.914 430.628 122.297 425.415 119.063C420.301 115.83 416.22 111.42 413.172 105.835C410.221 100.25 408.746 93.8805 408.746 86.7274C408.746 79.5743 410.221 73.2051 413.172 67.6198C416.22 62.0345 420.301 57.625 425.415 54.3914C430.628 51.1578 436.528 49.541 443.117 49.541C447.936 49.541 452.263 50.4719 456.099 52.3337C460.032 54.1954 463.229 56.7921 465.687 60.1237C468.146 63.3573 469.523 67.0808 469.818 71.2943V102.16C469.523 106.374 468.146 110.146 465.687 113.478C463.327 116.712 460.18 119.259 456.246 121.121C452.312 122.983 447.936 123.914 443.117 123.914ZM447.69 103.63C452.509 103.63 456.394 102.062 459.344 98.9269C462.294 95.6933 463.769 91.6268 463.769 86.7274C463.769 83.3958 463.081 80.4562 461.704 77.9085C460.426 75.3608 458.557 73.401 456.099 72.0292C453.738 70.5594 450.985 69.8245 447.838 69.8245C444.691 69.8245 441.888 70.5594 439.429 72.0292C437.069 73.401 435.151 75.3608 433.676 77.9085C432.299 80.4562 431.611 83.3958 431.611 86.7274C431.611 89.961 432.299 92.8516 433.676 95.3993C435.053 97.947 436.971 99.9557 439.429 101.426C441.888 102.895 444.642 103.63 447.69 103.63ZM467.884 122.444C465.123 122.444 462.884 120.205 462.884 117.444V103.674C462.884 103.352 462.916 103.03 462.977 102.714L466.089 86.8054C466.213 86.1715 466.213 85.5195 466.089 84.8856L462.977 68.9771C462.916 68.6609 462.884 68.3394 462.884 68.0172V56.0108C462.884 53.2494 465.123 51.0108 467.884 51.0108H480.012C482.773 51.0108 485.012 53.2494 485.012 56.0108V117.444C485.012 120.205 482.773 122.444 480.012 122.444H467.884Z" fill="#4285F4"/>
<path d="M496.717 123.914C493.955 123.914 491.717 121.675 491.717 118.914V57.4806C491.717 54.7191 493.955 52.4806 496.717 52.4806H509.287C512.048 52.4806 514.287 54.7191 514.287 57.4806V118.914C514.287 121.675 512.048 123.914 509.287 123.914H496.717ZM516.351 75.8938C514.365 79.035 510.012 81.3419 507.079 79.0591V79.0591C505.716 77.9977 505.072 76.2395 505.527 74.5723C507.441 67.5558 510.361 62.0047 514.287 57.9189C518.712 53.3135 524.859 51.0107 532.726 51.0107C536.168 51.0107 539.168 51.5497 541.725 52.6275C543.054 53.1181 544.297 53.7561 545.454 54.5414C547.484 55.9197 547.536 58.7435 546.01 60.6652L538.029 70.7151C536.563 72.5605 533.735 72.6076 531.546 71.7352V71.7352C530.071 71.1472 528.399 70.8533 526.531 70.8533C522.793 70.8533 519.794 72.0291 517.532 74.3808C517.094 74.837 516.701 75.3413 516.351 75.8938Z" fill="#4285F4"/>
<path d="M75.4862 65.5142C75.4862 56.2151 67.9653 48.6777 58.6894 48.6777C49.4122 48.6777 41.8926 56.2164 41.8926 65.5142V79.3507C41.8926 81.0076 43.2357 82.3507 44.8926 82.3507H58.6894C67.9653 82.3507 75.4862 74.8121 75.4862 65.5142Z" fill="#FFB900"/>
<path d="M28.3502 81.6764H34.561C36.2178 81.6764 37.561 80.3332 37.561 78.6764V28.4709C37.561 12.747 24.8687 0 9.21081 0H3C1.34315 0 0 1.34315 0 3V53.2055C0 68.9294 12.6935 81.6764 28.3502 81.6764Z" fill="#4285F4"/>
<path d="M8.71954 114.806V121C8.71954 122.656 10.0627 124 11.7195 124H62.0246C77.7779 124 90.5488 111.331 90.5488 95.7024V89.5088C90.5488 87.8519 89.2057 86.5088 87.5488 86.5088H37.2438C21.4904 86.5088 8.71954 99.1786 8.71954 114.806Z" fill="#4285F4"/>
</svg>
