<svg width="472" height="102" viewBox="0 0 472 102" fill="none" xmlns="http://www.w3.org/2000/svg">
<path d="M461.64 80.9141C463.059 80.9141 464.397 81.1931 465.656 81.7511C466.914 82.2825 468.011 83.0265 468.948 83.9831C469.885 84.9132 470.621 86.0159 471.157 87.2914C471.719 88.5402 472 89.8821 472 91.317C472 92.7519 471.719 94.1071 471.157 95.3825C470.621 96.6314 469.885 97.7342 468.948 98.6908C468.011 99.6208 466.914 100.365 465.656 100.923C464.397 101.454 463.059 101.72 461.64 101.72C460.195 101.72 458.843 101.454 457.585 100.923C456.326 100.365 455.229 99.6208 454.292 98.6908C453.355 97.7342 452.605 96.6314 452.043 95.3825C451.508 94.1071 451.24 92.7519 451.24 91.317C451.24 89.8821 451.508 88.5402 452.043 87.2914C452.605 86.0159 453.355 84.9132 454.292 83.9831C455.229 83.0265 456.326 82.2825 457.585 81.7511C458.843 81.1931 460.195 80.9141 461.64 80.9141ZM461.64 96.8971C462.309 96.8971 462.925 96.7643 463.487 96.4986C464.076 96.2328 464.585 95.8741 465.013 95.4224C465.468 94.9441 465.816 94.3861 466.057 93.7484C466.325 93.0841 466.459 92.3533 466.459 91.5562C466.459 90.759 466.325 90.015 466.057 89.3241C465.816 88.6332 465.468 88.0354 465.013 87.5305C464.585 86.9991 464.076 86.5872 463.487 86.2949C462.925 85.976 462.309 85.8166 461.64 85.8166C460.971 85.8166 460.342 85.976 459.753 86.2949C459.164 86.5872 458.642 86.9991 458.187 87.5305C457.759 88.0354 457.411 88.6332 457.143 89.3241C456.902 90.015 456.781 90.759 456.781 91.5562C456.781 92.3533 456.902 93.0841 457.143 93.7484C457.411 94.3861 457.759 94.9441 458.187 95.4224C458.642 95.8741 459.164 96.2328 459.753 96.4986C460.342 96.7643 460.971 96.8971 461.64 96.8971Z" fill="#4285F4"/>
<path d="M449.617 101.241H444.076V81.4717H449.617V101.241ZM446.847 78.7614C445.99 78.7614 445.267 78.4691 444.678 77.8845C444.089 77.2999 443.795 76.5825 443.795 75.7322C443.795 74.8818 444.089 74.1644 444.678 73.5798C445.267 72.9687 445.99 72.6631 446.847 72.6631C447.703 72.6631 448.426 72.9687 449.015 73.5798C449.604 74.1644 449.898 74.8818 449.898 75.7322C449.898 76.5825 449.604 77.2999 449.015 77.8845C448.426 78.4691 447.703 78.7614 446.847 78.7614Z" fill="#4285F4"/>
<path d="M442.396 72.1455V101.242H437.658L436.855 99.528C436.239 100.166 435.382 100.697 434.285 101.122C433.214 101.521 432.09 101.72 430.912 101.72C429.493 101.72 428.181 101.454 426.977 100.923C425.772 100.365 424.728 99.621 423.845 98.691C422.988 97.7344 422.306 96.6316 421.797 95.3828C421.315 94.1073 421.074 92.7521 421.074 91.3172C421.074 89.8823 421.315 88.5405 421.797 87.2916C422.306 86.0161 422.988 84.9134 423.845 83.9833C424.728 83.0268 425.772 82.2827 426.977 81.7513C428.181 81.1933 429.493 80.9143 430.912 80.9143C432.17 80.9143 433.281 81.0604 434.245 81.3527C435.235 81.645 436.105 82.1366 436.855 82.8275V72.1455H442.396ZM436.855 91.3969C436.855 90.3606 436.721 89.497 436.453 88.8062C436.186 88.0887 435.811 87.5174 435.329 87.0923C434.847 86.6406 434.285 86.3217 433.642 86.1357C433.027 85.9231 432.357 85.8168 431.635 85.8168C430.912 85.8168 430.229 85.963 429.587 86.2553C428.971 86.5476 428.422 86.9461 427.941 87.451C427.485 87.9293 427.124 88.5139 426.856 89.2048C426.589 89.8691 426.455 90.5732 426.455 91.3172C426.455 92.0878 426.589 92.8053 426.856 93.4696C427.124 94.1339 427.485 94.7185 427.941 95.2233C428.422 95.7016 428.971 96.0869 429.587 96.3792C430.229 96.6715 430.912 96.8176 431.635 96.8176C433.08 96.8176 434.298 96.3792 435.289 95.5023C436.306 94.5989 436.828 93.2304 436.855 91.3969Z" fill="#4285F4"/>
<path d="M414.029 81.4727H419.57V101.242H414.832L414.029 99.7276C413.386 100.179 412.65 100.551 411.82 100.844C411.017 101.109 410.147 101.242 409.21 101.242C408.487 101.242 407.658 101.136 406.721 100.923C405.81 100.711 404.954 100.312 404.151 99.7276C403.348 99.1431 402.665 98.3326 402.103 97.2963C401.567 96.26 401.3 94.9181 401.3 93.2706V81.4727H406.881V93.0713C406.881 93.6825 406.975 94.2007 407.162 94.6258C407.376 95.051 407.644 95.3964 407.965 95.6621C408.313 95.9013 408.702 96.0873 409.13 96.2201C409.558 96.3264 410 96.3796 410.455 96.3796C410.803 96.3796 411.178 96.3264 411.579 96.2201C412.008 96.0873 412.396 95.888 412.744 95.6223C413.118 95.3565 413.426 95.0111 413.667 94.586C413.908 94.1608 414.029 93.6559 414.029 93.0713V81.4727Z" fill="#4285F4"/>
<path d="M396.308 94.147C396.308 95.077 396.589 95.7944 397.151 96.2993C397.74 96.8042 398.503 97.0566 399.44 97.0566C400.19 97.0566 400.939 96.9104 401.689 96.6182V101.242C401.02 101.454 400.31 101.627 399.561 101.76C398.811 101.919 398.062 101.999 397.312 101.999C396.455 101.999 395.639 101.893 394.863 101.68C394.086 101.468 393.39 101.109 392.775 100.604C392.159 100.073 391.664 99.3816 391.289 98.5313C390.941 97.6545 390.767 96.5783 390.767 95.3028V86.3746H387.916V82.6678L390.767 81.4721V77.0479H396.308V81.4721H401.689V86.3746H396.308V94.147Z" fill="#4285F4"/>
<path d="M385.211 90.8789C386.683 91.9152 387.419 93.39 387.419 95.3032C387.419 96.1801 387.205 97.0038 386.777 97.7744C386.375 98.545 385.813 99.2226 385.09 99.8071C384.367 100.392 383.524 100.857 382.56 101.202C381.597 101.521 380.566 101.68 379.469 101.68C378.639 101.68 377.822 101.574 377.019 101.362C376.243 101.149 375.52 100.857 374.851 100.485C374.182 100.113 373.593 99.6743 373.084 99.1694C372.602 98.638 372.241 98.0534 372 97.4157C372.616 97.1234 373.298 96.8045 374.048 96.4591C374.797 96.0871 375.453 95.7549 376.015 95.4626C376.256 95.8612 376.631 96.2332 377.14 96.5786C377.648 96.8975 378.344 97.0569 379.228 97.0569C380.138 97.0569 380.807 96.8444 381.235 96.4192C381.664 95.9941 381.878 95.5955 381.878 95.2235C381.878 94.9577 381.731 94.7186 381.436 94.506C381.142 94.2669 380.807 94.0809 380.432 93.948C379.897 93.7354 379.455 93.6291 379.107 93.6291C378.759 93.6026 378.358 93.5229 377.903 93.39C376.457 93.0446 375.346 92.5928 374.57 92.0348C373.82 91.4502 373.272 90.8657 372.924 90.2811C372.576 89.6965 372.375 89.1385 372.321 88.607C372.294 88.0756 372.281 87.6504 372.281 87.3316C372.281 86.4813 372.468 85.6708 372.843 84.9002C373.218 84.1296 373.727 83.4653 374.369 82.9073C375.038 82.3227 375.801 81.8577 376.658 81.5123C377.541 81.1669 378.478 80.9941 379.469 80.9941C380.298 80.9941 381.088 81.1137 381.838 81.3529C382.587 81.592 383.27 81.9242 383.886 82.3493C384.501 82.7745 385.023 83.2793 385.452 83.8639C385.907 84.4485 386.241 85.0995 386.455 85.817L382.159 87.2519C381.998 86.7736 381.664 86.3883 381.155 86.096C380.673 85.8037 380.151 85.6575 379.589 85.6575C379.027 85.6575 378.572 85.8435 378.224 86.2155C377.876 86.5876 377.702 86.9596 377.702 87.3316C377.702 87.7833 377.862 88.142 378.184 88.4077C378.532 88.6469 378.906 88.8196 379.308 88.9259C379.602 88.979 379.884 89.0322 380.151 89.0853C380.446 89.1119 380.727 89.1518 380.994 89.2049C381.931 89.4175 382.735 89.6566 383.404 89.9223C384.1 90.1881 384.702 90.5069 385.211 90.8789Z" fill="#4285F4"/>
<path d="M2 102C0.895431 102 0 101.104 0 99.9996V26.8779C0 25.7734 0.895431 24.8779 2 24.8779H15.2647C16.3693 24.8779 17.2647 25.7734 17.2647 26.8779V99.9997C17.2647 101.104 16.3693 102 15.2647 102H2ZM15.3059 102C14.2014 102 13.3059 101.104 13.3059 99.9996V88.9249C13.3059 87.8203 14.2014 86.9249 15.3059 86.9249H49.6842C50.7887 86.9249 51.6842 87.8203 51.6842 88.9249V99.9996C51.6842 101.104 50.7887 102 49.6842 102H15.3059Z" fill="#4285F4"/>
<path d="M79.3048 102C74.3929 102 69.9943 100.798 66.1088 98.3949C62.2966 95.9917 59.2542 92.7146 56.9816 88.5636C54.7823 84.4125 53.6826 79.6789 53.6826 74.3627C53.6826 69.0465 54.7823 64.3128 56.9816 60.1618C59.2542 56.0108 62.2966 52.7336 66.1088 50.3304C69.9943 47.9272 74.3929 46.7256 79.3048 46.7256C82.897 46.7256 86.1227 47.4174 88.9818 48.8011C91.9142 50.1848 94.2969 52.1146 96.1296 54.5907C97.9624 56.9939 98.9887 59.7613 99.2087 62.8927V85.8326C98.9887 88.9641 97.9624 91.7679 96.1296 94.2439C94.3702 96.6471 92.0242 98.5406 89.0918 99.9243C86.1593 101.308 82.897 102 79.3048 102ZM82.7137 86.925C86.306 86.925 89.2017 85.7598 91.4011 83.4294C93.6004 81.0262 94.7001 78.0039 94.7001 74.3627C94.7001 71.8866 94.1869 69.7019 93.1605 67.8084C92.2075 65.915 90.8146 64.4585 88.9818 63.4389C87.2224 62.3466 85.1696 61.8004 82.8237 61.8004C80.4777 61.8004 78.3884 62.3466 76.5556 63.4389C74.7962 64.4585 73.3666 65.915 72.2669 67.8084C71.2406 69.7019 70.7274 71.8866 70.7274 74.3627C70.7274 76.7659 71.2406 78.9142 72.2669 80.8077C73.2933 82.7011 74.7228 84.1941 76.5556 85.2864C78.3884 86.3788 80.4411 86.925 82.7137 86.925ZM96.0403 100.907C94.9357 100.907 94.0403 100.012 94.0403 98.9074V86.7917C94.0403 86.6624 94.0528 86.5334 94.0777 86.4066L96.4939 74.0924C96.5438 73.838 96.5438 73.5765 96.4939 73.3222L94.0777 61.008C94.0528 60.8811 94.0403 60.7521 94.0403 60.6229V49.818C94.0403 48.7134 94.9357 47.818 96.0403 47.818H108.535C109.64 47.818 110.535 48.7134 110.535 49.818V98.9074C110.535 100.012 109.64 100.907 108.535 100.907H96.0403Z" fill="#4285F4"/>
<path d="M117.534 102C116.43 102 115.534 101.105 115.534 100V50.9107C115.534 49.8062 116.43 48.9107 117.534 48.9107H130.359C131.464 48.9107 132.359 49.8062 132.359 50.9107V100C132.359 101.105 131.464 102 130.359 102H117.534ZM151.734 102C150.629 102 149.734 101.105 149.734 100V70.9767C149.734 68.2822 148.891 66.2067 147.204 64.7502C145.592 63.2209 143.576 62.4562 141.156 62.4562C139.47 62.4562 137.967 62.8203 136.648 63.5486C135.328 64.204 134.265 65.1507 133.459 66.3887C133.175 66.8679 132.946 67.3908 132.772 67.9572C132.349 69.3362 130.878 70.3286 129.557 69.7501L127.069 68.661C126.341 68.3424 125.864 67.6225 125.901 66.8289C126.073 63.1639 126.979 59.9949 128.62 57.322C130.453 54.2634 132.946 51.933 136.098 50.3308C139.25 48.6558 142.806 47.8184 146.765 47.8184C150.503 47.8184 153.839 48.6558 156.772 50.3308C159.777 52.0058 162.16 54.3362 163.919 57.322C165.679 60.3079 166.559 63.8763 166.559 68.0273V100C166.559 101.105 165.663 102 164.559 102H151.734ZM185.933 102C184.829 102 183.933 101.105 183.933 100V70.9767C183.933 68.2822 183.09 66.2067 181.404 64.7502C179.791 63.2209 177.775 62.4562 175.356 62.4562C173.67 62.4562 172.167 62.8203 170.847 63.5486C169.528 64.204 168.465 65.1507 167.658 66.3887C167.254 67.0713 166.961 67.8425 166.78 68.7022C166.53 69.8874 165.49 70.832 164.29 70.6694L158.671 69.9082C157.654 69.7706 156.899 68.885 156.992 67.8637C157.334 64.1151 158.36 60.8561 160.071 58.0867C162.123 54.8096 164.799 52.2971 168.098 50.5493C171.47 48.7287 175.246 47.8184 179.425 47.8184C183.53 47.8184 187.159 48.6923 190.311 50.4401C193.537 52.115 196.066 54.5547 197.899 57.759C199.805 60.8905 200.758 64.6774 200.758 69.1197V100C200.758 101.105 199.863 102 198.758 102H185.933Z" fill="#4285F4"/>
<path d="M207.756 102C206.651 102 205.756 101.104 205.756 99.9996V50.9102C205.756 49.8056 206.651 48.9102 207.756 48.9102H220.581C221.685 48.9102 222.581 49.8056 222.581 50.9102V99.9996C222.581 101.104 221.685 102 220.581 102H207.756Z" fill="#4285F4"/>
<path d="M264.878 102C263.774 102 262.878 101.105 262.878 100V71.7414C262.878 68.974 261.999 66.7529 260.239 65.0779C258.553 63.3301 256.39 62.4562 253.751 62.4562C251.918 62.4562 250.305 62.8567 248.913 63.6578C247.52 64.3861 246.42 65.4784 245.614 66.9349C245.311 67.4549 245.064 68.0057 244.875 68.5874C244.418 69.9934 242.855 70.9851 241.526 70.3364L239.038 69.1216C238.352 68.7862 237.909 68.0881 237.944 67.3245C238.112 63.6881 239.018 60.4632 240.665 57.6497C242.498 54.5183 245.027 52.115 248.253 50.4401C251.552 48.6923 255.254 47.8184 259.359 47.8184C263.318 47.8184 266.8 48.7651 269.806 50.6585C272.885 52.4792 275.304 54.9188 277.064 57.9775C278.823 61.0361 279.703 64.3861 279.703 68.0273V100C279.703 101.105 278.808 102 277.703 102H264.878ZM229.579 102C228.475 102 227.579 101.105 227.579 100V50.9107C227.579 49.8062 228.475 48.9107 229.579 48.9107H242.404C243.509 48.9107 244.404 49.8062 244.404 50.9107V100C244.404 101.105 243.509 102 242.404 102H229.579Z" fill="#FFB900"/>
<path d="M310.324 102C305.412 102 301.014 100.798 297.128 98.3949C293.316 95.9917 290.274 92.7146 288.001 88.5636C285.802 84.4125 284.702 79.6789 284.702 74.3627C284.702 69.0465 285.802 64.3128 288.001 60.1618C290.274 56.0108 293.316 52.7336 297.128 50.3304C301.014 47.9272 305.412 46.7256 310.324 46.7256C313.917 46.7256 317.142 47.4174 320.001 48.8011C322.934 50.1848 325.316 52.1146 327.149 54.5907C328.982 56.9939 330.008 59.7613 330.228 62.8927V85.8326C330.008 88.9641 328.982 91.7679 327.149 94.2439C325.39 96.6471 323.044 98.5406 320.111 99.9243C317.179 101.308 313.917 102 310.324 102ZM313.733 86.925C317.325 86.925 320.221 85.7598 322.421 83.4294C324.62 81.0262 325.72 78.0039 325.72 74.3627C325.72 71.8866 325.206 69.7019 324.18 67.8084C323.227 65.915 321.834 64.4585 320.001 63.4389C318.242 62.3466 316.189 61.8004 313.843 61.8004C311.497 61.8004 309.408 62.3466 307.575 63.4389C305.816 64.4585 304.386 65.915 303.286 67.8084C302.26 69.7019 301.747 71.8866 301.747 74.3627C301.747 76.7659 302.26 78.9142 303.286 80.8077C304.313 82.7011 305.742 84.1941 307.575 85.2864C309.408 86.3788 311.461 86.925 313.733 86.925ZM327.06 100.907C325.955 100.907 325.06 100.012 325.06 98.9074V86.7917C325.06 86.6624 325.072 86.5334 325.097 86.4066L327.513 74.0924C327.563 73.838 327.563 73.5765 327.513 73.3222L325.097 61.008C325.072 60.8811 325.06 60.7521 325.06 60.6229V49.818C325.06 48.7134 325.955 47.818 327.06 47.818H339.555C340.659 47.818 341.555 48.7134 341.555 49.818V98.9074C341.555 100.012 340.659 100.907 339.555 100.907H327.06Z" fill="#FFB900"/>
<path d="M348.554 102C347.449 102 346.554 101.105 346.554 100V50.9107C346.554 49.8062 347.449 48.9107 348.554 48.9107H361.379C362.483 48.9107 363.379 49.8062 363.379 50.9107V100C363.379 101.105 362.483 102 361.379 102H348.554ZM363.856 68.7895C363.421 70.395 361.466 71.3498 360.152 70.33L357.345 68.1511C356.732 67.6755 356.446 66.8872 356.636 66.1354C358.055 60.5382 360.303 56.1439 363.379 52.9525C366.678 49.5297 371.259 47.8184 377.124 47.8184C379.69 47.8184 381.926 48.2189 383.832 49.02C385.284 49.5542 386.598 50.3235 387.774 51.328C388.522 51.967 388.549 53.0822 387.936 53.8517L380.453 63.2464C379.687 64.2079 378.233 64.2356 377.154 63.6465C376.866 63.4893 376.563 63.3474 376.245 63.2209C375.145 62.7839 373.899 62.5654 372.506 62.5654C369.72 62.5654 367.484 63.4393 365.798 65.1871C364.901 66.118 364.254 67.3188 363.856 68.7895Z" fill="#FFB900"/>
<path d="M402.995 7.78314C383.732 5.17488 372.216 28.529 386.263 41.9551C391.441 46.9033 397.351 47.707 403.372 47.5359C403.831 47.523 404.236 47.5093 404.635 47.4958C405.113 47.4796 405.582 47.4637 406.128 47.4498C406.474 47.442 406.796 47.4563 407.131 47.4713C407.256 47.4769 407.383 47.4826 407.514 47.4872C407.982 47.5037 408.474 47.5047 409 47.4195L409.3 47.3708L409.395 47.0829C409.451 46.9133 409.485 46.6851 409.509 46.4481C409.534 46.2005 409.551 45.9044 409.564 45.5787C409.588 44.9268 409.592 44.1345 409.586 43.3331C409.58 42.4521 409.563 41.5751 409.549 40.8424C409.537 40.2202 409.527 39.702 409.527 39.374H409.527L409.527 39.3676L409.391 28.1018L409.391 28.0885L409.39 28.0752C409.239 25.764 408.797 23.6441 407.693 21.9658C406.575 20.2652 404.815 19.0733 402.152 18.5558C391.418 16.4701 386.636 30.5883 395.569 35.5333L395.569 35.5333C398.207 36.9927 400.548 36.7851 402.764 36.4099C402.846 37.1066 402.863 37.823 402.862 38.5684C402.862 38.8209 402.859 39.0783 402.857 39.3392C402.851 39.896 402.846 40.4691 402.86 41.0463C402.099 41.2322 400.992 41.256 399.771 41.1487C398.375 41.0261 396.913 40.7402 395.813 40.4034C393.216 39.6084 390.583 37.8666 388.813 35.3276C381.654 25.0522 391.348 11.8056 402.54 14.0473L402.54 14.0473C407.401 15.0209 409.974 17.4243 411.465 19.7731C412.215 20.9564 412.698 22.1362 413.056 23.1388C413.167 23.4502 413.263 23.7326 413.352 23.9972C413.41 24.1678 413.465 24.331 413.52 24.4897C413.653 24.8716 413.786 25.2264 413.937 25.4873L414.078 25.7331L414.363 25.7377C414.594 25.7415 414.89 25.7528 415.232 25.766C415.329 25.7697 415.43 25.7735 415.534 25.7774C416.001 25.7948 416.526 25.812 417.048 25.8155C417.568 25.8189 418.094 25.8088 418.562 25.7703C419.019 25.7326 419.463 25.6649 419.799 25.5338L420.234 25.3638L420.094 24.9201C419.906 24.3254 419.777 23.7514 419.638 23.1345C419.581 22.8778 419.521 22.6137 419.455 22.3376C419.234 21.4111 418.948 20.4025 418.421 19.2333L418.421 19.2332C415.528 12.8184 409.477 8.66035 402.995 7.78314ZM402.995 7.78314L402.928 8.27266L402.995 7.78314Z" fill="#FFB900" stroke="#FFB900"/>
<path d="M413.972 37.6045L413.972 37.6045C413.972 37.2765 413.962 36.7583 413.95 36.1359C413.936 35.4033 413.919 34.5264 413.913 33.6454C413.907 32.844 413.911 32.0517 413.935 31.3998C413.948 31.0741 413.965 30.778 413.99 30.5304C414.014 30.2935 414.048 30.0652 414.104 29.8956L414.199 29.6077L414.499 29.559C415.025 29.4738 415.517 29.4748 415.985 29.4913C416.116 29.496 416.243 29.5016 416.368 29.5072C416.702 29.5222 417.024 29.5365 417.37 29.5287C417.916 29.5149 418.386 29.4989 418.864 29.4827C419.263 29.4692 419.668 29.4555 420.127 29.4427C426.148 29.2715 432.058 30.0752 437.236 35.0234C451.283 48.4495 439.767 71.8036 420.504 69.1954C414.022 68.3182 407.971 64.1602 405.078 57.7453L405.078 57.7452C404.551 56.576 404.265 55.5674 404.044 54.6409C403.978 54.3648 403.918 54.1007 403.861 53.844C403.722 53.2271 403.593 52.6531 403.405 52.0584L403.265 51.6147L403.7 51.4448C404.036 51.3136 404.48 51.2459 404.937 51.2083C405.405 51.1697 405.931 51.1596 406.451 51.1631C406.973 51.1665 407.498 51.1837 407.965 51.2011C408.069 51.205 408.17 51.2088 408.267 51.2126C408.609 51.2257 408.905 51.237 409.136 51.2408L409.421 51.2454L409.563 51.4913C409.713 51.7522 409.846 52.1069 409.979 52.4888C410.034 52.6475 410.089 52.8107 410.147 52.9813C410.236 53.2459 410.332 53.5283 410.443 53.8397C410.801 54.8423 411.284 56.0222 412.034 57.2054C413.525 59.5542 416.098 61.9576 420.959 62.9312L420.959 62.9312C432.151 65.1729 441.845 51.9264 434.686 41.651C432.916 39.112 430.283 37.3701 427.687 36.5751L413.972 37.6045ZM413.972 37.6045L413.972 37.611M413.972 37.6045L413.972 37.611M413.972 37.611L414.108 48.8767L414.108 48.89M413.972 37.611L414.108 48.89M414.108 48.89L414.109 48.9033M414.108 48.89L414.109 48.9033M414.109 48.9033C414.26 51.2146 414.702 53.3344 415.806 55.0128C416.924 56.7133 418.684 57.9052 421.347 58.4227C432.081 60.5085 436.864 46.3902 427.93 41.4452L427.93 41.4452M414.109 48.9033L427.93 41.4452M427.93 41.4452C425.292 39.9858 422.951 40.1934 420.735 40.5686M427.93 41.4452L420.735 40.5686M420.735 40.5686C420.653 39.8719 420.636 39.1556 420.637 38.4101C420.637 38.1576 420.64 37.9002 420.642 37.6393C420.648 37.0825 420.654 36.5094 420.639 35.9322C421.4 35.7463 422.507 35.7225 423.728 35.8298C425.124 35.9525 426.586 36.2383 427.686 36.5751L420.735 40.5686Z" fill="#4285F4" stroke="#4285F4"/>
</svg>
