<svg width="229" height="50" viewBox="0 0 229 50" fill="none" xmlns="http://www.w3.org/2000/svg">
<path d="M224.005 39.6641C224.689 39.6641 225.334 39.8008 225.941 40.0744C226.547 40.3349 227.077 40.6996 227.528 41.1685C227.98 41.6244 228.335 42.165 228.593 42.7902C228.864 43.4024 229 44.0602 229 44.7635C229 45.4669 228.864 46.1312 228.593 46.7564C228.335 47.3686 227.98 47.9092 227.528 48.3781C227.077 48.834 226.547 49.1987 225.941 49.4723C225.334 49.7328 224.689 49.863 224.005 49.863C223.308 49.863 222.656 49.7328 222.05 49.4723C221.443 49.1987 220.914 48.834 220.462 48.3781C220.011 47.9092 219.649 47.3686 219.378 46.7564C219.12 46.1312 218.991 45.4669 218.991 44.7635C218.991 44.0602 219.12 43.4024 219.378 42.7902C219.649 42.165 220.011 41.6244 220.462 41.1685C220.914 40.6996 221.443 40.3349 222.05 40.0744C222.656 39.8008 223.308 39.6641 224.005 39.6641ZM224.005 47.4989C224.328 47.4989 224.625 47.4338 224.896 47.3035C225.179 47.1733 225.425 46.9974 225.631 46.776C225.851 46.5415 226.018 46.268 226.134 45.9554C226.264 45.6297 226.328 45.2715 226.328 44.8808C226.328 44.49 226.264 44.1253 226.134 43.7866C226.018 43.448 225.851 43.1549 225.631 42.9074C225.425 42.6469 225.179 42.445 224.896 42.3017C224.625 42.1454 224.328 42.0673 224.005 42.0673C223.682 42.0673 223.379 42.1454 223.095 42.3017C222.811 42.445 222.56 42.6469 222.34 42.9074C222.134 43.1549 221.966 43.448 221.837 43.7866C221.721 44.1253 221.663 44.49 221.663 44.8808C221.663 45.2715 221.721 45.6297 221.837 45.9554C221.966 46.268 222.134 46.5415 222.34 46.776C222.56 46.9974 222.811 47.1733 223.095 47.3035C223.379 47.4338 223.682 47.4989 224.005 47.4989Z" fill="white"/>
<path d="M218.209 49.629H215.538V39.9381H218.209V49.629ZM216.874 38.6095C216.461 38.6095 216.112 38.4662 215.828 38.1796C215.544 37.8931 215.402 37.5414 215.402 37.1246C215.402 36.7077 215.544 36.3561 215.828 36.0695C216.112 35.7699 216.461 35.6201 216.874 35.6201C217.287 35.6201 217.635 35.7699 217.919 36.0695C218.203 36.3561 218.345 36.7077 218.345 37.1246C218.345 37.5414 218.203 37.8931 217.919 38.1796C217.635 38.4662 217.287 38.6095 216.874 38.6095Z" fill="white"/>
<path d="M214.728 35.3662V49.6291H212.443L212.056 48.789C211.759 49.1016 211.346 49.3621 210.817 49.5705C210.301 49.7659 209.759 49.8636 209.191 49.8636C208.507 49.8636 207.875 49.7333 207.294 49.4728C206.713 49.1993 206.21 48.8346 205.784 48.3787C205.371 47.9098 205.042 47.3692 204.797 46.757C204.564 46.1318 204.448 45.4675 204.448 44.7641C204.448 44.0607 204.564 43.4029 204.797 42.7907C205.042 42.1655 205.371 41.625 205.784 41.1691C206.21 40.7001 206.713 40.3354 207.294 40.0749C207.875 39.8014 208.507 39.6646 209.191 39.6646C209.798 39.6646 210.333 39.7363 210.798 39.8795C211.275 40.0228 211.695 40.2638 212.056 40.6025V35.3662H214.728ZM212.056 44.8032C212.056 44.2952 211.992 43.8719 211.863 43.5332C211.733 43.1815 211.553 42.9015 211.32 42.693C211.088 42.4716 210.817 42.3153 210.507 42.2241C210.211 42.1199 209.888 42.0678 209.54 42.0678C209.191 42.0678 208.862 42.1395 208.552 42.2827C208.255 42.426 207.991 42.6214 207.759 42.8689C207.539 43.1033 207.365 43.3899 207.236 43.7286C207.107 44.0542 207.042 44.3994 207.042 44.7641C207.042 45.1418 207.107 45.4935 207.236 45.8192C207.365 46.1448 207.539 46.4314 207.759 46.6788C207.991 46.9133 208.255 47.1022 208.552 47.2455C208.862 47.3887 209.191 47.4604 209.54 47.4604C210.236 47.4604 210.824 47.2455 211.301 46.8156C211.792 46.3727 212.043 45.7019 212.056 44.8032Z" fill="white"/>
<path d="M201.052 39.9385H203.723V49.6294H201.439L201.052 48.887C200.742 49.1084 200.387 49.2908 199.987 49.4341C199.6 49.5643 199.18 49.6294 198.729 49.6294C198.38 49.6294 197.98 49.5773 197.528 49.4731C197.09 49.3689 196.677 49.1735 196.289 48.887C195.902 48.6004 195.573 48.2031 195.302 47.6952C195.044 47.1872 194.915 46.5294 194.915 45.7218V39.9385H197.606V45.6241C197.606 45.9237 197.651 46.1777 197.741 46.3861C197.845 46.5945 197.974 46.7638 198.129 46.8941C198.296 47.0113 198.483 47.1025 198.69 47.1676C198.896 47.2197 199.109 47.2458 199.329 47.2458C199.497 47.2458 199.677 47.2197 199.871 47.1676C200.077 47.1025 200.264 47.0048 200.432 46.8745C200.613 46.7443 200.761 46.575 200.877 46.3666C200.994 46.1581 201.052 45.9107 201.052 45.6241V39.9385Z" fill="white"/>
<path d="M192.508 46.1514C192.508 46.6073 192.643 46.959 192.914 47.2065C193.198 47.454 193.566 47.5777 194.018 47.5777C194.379 47.5777 194.74 47.5061 195.102 47.3628V49.6292C194.779 49.7334 194.437 49.8181 194.076 49.8832C193.714 49.9614 193.353 50.0005 192.992 50.0005C192.579 50.0005 192.185 49.9484 191.811 49.8442C191.437 49.74 191.101 49.5641 190.804 49.3166C190.507 49.0561 190.269 48.7175 190.088 48.3006C189.92 47.8708 189.836 47.3433 189.836 46.718V42.3415H188.462V40.5244L189.836 39.9383V37.7695H192.508V39.9383H195.102V42.3415H192.508V46.1514Z" fill="white"/>
<path d="M187.158 44.5486C187.868 45.0566 188.223 45.7795 188.223 46.7173C188.223 47.1472 188.119 47.551 187.913 47.9287C187.719 48.3065 187.448 48.6386 187.1 48.9252C186.751 49.2117 186.345 49.4397 185.88 49.609C185.416 49.7653 184.919 49.8435 184.39 49.8435C183.99 49.8435 183.596 49.7914 183.209 49.6872C182.835 49.583 182.486 49.4397 182.164 49.2573C181.841 49.075 181.557 48.86 181.312 48.6126C181.079 48.352 180.905 48.0655 180.789 47.7529C181.086 47.6096 181.415 47.4533 181.776 47.284C182.138 47.1016 182.454 46.9388 182.725 46.7955C182.841 46.9909 183.022 47.1732 183.267 47.3426C183.512 47.4989 183.848 47.577 184.274 47.577C184.712 47.577 185.035 47.4728 185.241 47.2644C185.448 47.056 185.551 46.8606 185.551 46.6783C185.551 46.548 185.48 46.4308 185.338 46.3266C185.196 46.2094 185.035 46.1182 184.854 46.053C184.596 45.9488 184.383 45.8967 184.216 45.8967C184.048 45.8837 183.854 45.8446 183.635 45.7795C182.938 45.6102 182.402 45.3887 182.028 45.1152C181.667 44.8287 181.402 44.5421 181.234 44.2555C181.067 43.969 180.97 43.6954 180.944 43.4349C180.931 43.1744 180.925 42.966 180.925 42.8097C180.925 42.3929 181.015 41.9956 181.196 41.6179C181.376 41.2401 181.621 40.9145 181.931 40.641C182.254 40.3544 182.622 40.1265 183.035 39.9571C183.461 39.7878 183.912 39.7031 184.39 39.7031C184.79 39.7031 185.171 39.7617 185.532 39.879C185.893 39.9962 186.222 40.159 186.519 40.3674C186.816 40.5758 187.068 40.8233 187.274 41.1099C187.494 41.3964 187.655 41.7156 187.758 42.0672L185.687 42.7706C185.609 42.5362 185.448 42.3473 185.203 42.204C184.97 42.0607 184.719 41.9891 184.448 41.9891C184.177 41.9891 183.957 42.0803 183.79 42.2626C183.622 42.445 183.538 42.6273 183.538 42.8097C183.538 43.0311 183.615 43.207 183.77 43.3372C183.938 43.4545 184.119 43.5391 184.312 43.5912C184.454 43.6173 184.59 43.6433 184.719 43.6694C184.861 43.6824 184.996 43.7019 185.125 43.728C185.577 43.8322 185.964 43.9494 186.287 44.0797C186.622 44.2099 186.913 44.3662 187.158 44.5486Z" fill="white"/>
<path d="M1 50C0.447715 50 0 49.5523 0 49V13.1953C0 12.643 0.447715 12.1953 1 12.1953H7.32339C7.87568 12.1953 8.32339 12.643 8.32339 13.1953V49C8.32339 49.5523 7.87568 50 7.32339 50H1ZM7.41485 50C6.86256 50 6.41485 49.5523 6.41485 49V43.6104C6.41485 43.0581 6.86256 42.6104 7.41485 42.6104H23.9172C24.4695 42.6104 24.9172 43.0581 24.9172 43.6104V49C24.9172 49.5523 24.4695 50 23.9172 50H7.41485Z" fill="white"/>
<path d="M39.6797 49.9994C37.3117 49.9994 35.1911 49.4104 33.3179 48.2324C31.48 47.0543 30.0133 45.4479 28.9176 43.4131C27.8573 41.3783 27.3271 39.0579 27.3271 36.4519C27.3271 33.8459 27.8573 31.5255 28.9176 29.4907C30.0133 27.4559 31.48 25.8494 33.3179 24.6714C35.1911 23.4933 37.3117 22.9043 39.6797 22.9043C41.4115 22.9043 42.9667 23.2434 44.345 23.9217C45.7588 24.6 46.9075 25.546 47.791 26.7597C48.6746 27.9378 49.1694 29.2943 49.2755 30.8294V42.0744C49.1694 43.6094 48.6746 44.9838 47.791 46.1976C46.9428 47.3756 45.8118 48.3038 44.3981 48.982C42.9843 49.6603 41.4115 49.9994 39.6797 49.9994ZM41.3232 42.6099C43.055 42.6099 44.4511 42.0387 45.5114 40.8963C46.5717 39.7183 47.1018 38.2368 47.1018 36.4519C47.1018 35.2381 46.8544 34.1672 46.3596 33.239C45.9002 32.3108 45.2286 31.5969 44.345 31.0971C43.4968 30.5616 42.5072 30.2939 41.3762 30.2939C40.2452 30.2939 39.2379 30.5616 38.3543 31.0971C37.5061 31.5969 36.8169 32.3108 36.2867 33.239C35.7919 34.1672 35.5445 35.2381 35.5445 36.4519C35.5445 37.6299 35.7919 38.683 36.2867 39.6112C36.7815 40.5393 37.4707 41.2712 38.3543 41.8066C39.2379 42.3421 40.2275 42.6099 41.3232 42.6099ZM47.7837 49.464C47.2315 49.464 46.7837 49.0163 46.7837 48.464V42.5448C46.7837 42.4812 46.7898 42.4178 46.8019 42.3553L47.9665 36.3201C47.9907 36.1949 47.9907 36.0663 47.9665 35.9411L46.8019 29.9058C46.7898 29.8434 46.7837 29.7799 46.7837 29.7163V24.4398C46.7837 23.8875 47.2315 23.4398 47.7837 23.4398H53.736C54.2883 23.4398 54.736 23.8875 54.736 24.4398V48.464C54.736 49.0163 54.2883 49.464 53.736 49.464H47.7837Z" fill="white"/>
<path d="M58.1455 49.9991C57.5932 49.9991 57.1455 49.5514 57.1455 48.9991V24.9749C57.1455 24.4226 57.5932 23.9749 58.1455 23.9749H64.2568C64.8091 23.9749 65.2568 24.4226 65.2568 24.9749V48.9991C65.2568 49.5514 64.8091 49.9991 64.2568 49.9991H58.1455ZM74.6332 49.9991C74.081 49.9991 73.6332 49.5514 73.6332 48.9991V34.7916C73.6332 33.4707 73.2268 32.4533 72.4139 31.7394C71.6363 30.9897 70.6644 30.6148 69.4981 30.6148C68.6852 30.6148 67.9606 30.7933 67.3244 31.1503C66.6883 31.4716 66.1758 31.9357 65.787 32.5426C65.6566 32.7664 65.5503 33.0097 65.468 33.2723C65.2517 33.9631 64.5115 34.4598 63.8502 34.1655L62.7223 33.6634C62.3614 33.5028 62.1254 33.1444 62.1439 32.7499C62.2278 30.9569 62.6646 29.4063 63.4543 28.0981C64.3379 26.5988 65.5396 25.4564 67.0594 24.6711C68.5791 23.85 70.2933 23.4395 72.2018 23.4395C74.0044 23.4395 75.6125 23.85 77.0262 24.6711C78.4753 25.4921 79.624 26.6345 80.4722 28.0981C81.3205 29.5617 81.7446 31.311 81.7446 33.3458V48.9991C81.7446 49.5514 81.2969 49.9991 80.7446 49.9991H74.6332ZM91.121 49.9991C90.5687 49.9991 90.121 49.5514 90.121 48.9991V34.7916C90.121 33.4707 89.7145 32.4533 88.9016 31.7394C88.1241 30.9897 87.1521 30.6148 85.9858 30.6148C85.1729 30.6148 84.4484 30.7933 83.8122 31.1503C83.176 31.4716 82.6635 31.9357 82.2747 32.5426C82.0837 32.8706 81.9443 33.2404 81.8565 33.6519C81.73 34.2451 81.209 34.7178 80.6081 34.635L77.971 34.2718C77.4641 34.202 77.0876 33.76 77.1338 33.2504C77.2999 31.4192 77.7942 29.8267 78.6167 28.4729C79.6063 26.8665 80.8963 25.6349 82.4868 24.7781C84.1126 23.8857 85.9328 23.4395 87.9474 23.4395C89.9266 23.4395 91.6761 23.8678 93.1959 24.7246C94.751 25.5457 95.9703 26.7416 96.8539 28.3123C97.7729 29.8473 98.2323 31.7037 98.2323 33.8813V48.9991C98.2323 49.5514 97.7846 49.9991 97.2323 49.9991H91.121Z" fill="white"/>
<path d="M101.643 49.9998C101.09 49.9998 100.643 49.5521 100.643 48.9998V24.9756C100.643 24.4233 101.09 23.9756 101.643 23.9756H107.754C108.306 23.9756 108.754 24.4233 108.754 24.9756V48.9998C108.754 49.5521 108.306 49.9998 107.754 49.9998H101.643Z" fill="white"/>
<path d="M129.181 49.9991C128.629 49.9991 128.181 49.5514 128.181 48.9991V35.1664C128.181 33.8099 127.757 32.7211 126.909 31.9C126.096 31.0432 125.053 30.6148 123.781 30.6148C122.897 30.6148 122.12 30.8112 121.448 31.2039C120.777 31.5609 120.246 32.0963 119.858 32.8103C119.719 33.0527 119.605 33.3088 119.515 33.5785C119.282 34.283 118.494 34.7792 117.83 34.4492L116.702 33.8892C116.362 33.7203 116.143 33.373 116.161 32.9936C116.242 31.2142 116.679 29.6359 117.472 28.2587C118.355 26.7237 119.575 25.5457 121.13 24.7246C122.72 23.8678 124.505 23.4395 126.484 23.4395C128.393 23.4395 130.072 23.9035 131.521 24.8317C133.005 25.7242 134.172 26.9201 135.02 28.4194C135.868 29.9187 136.292 31.5609 136.292 33.3458V48.9991C136.292 49.5514 135.845 49.9991 135.292 49.9991H129.181ZM112.163 49.9991C111.611 49.9991 111.163 49.5514 111.163 48.9991V24.9749C111.163 24.4226 111.611 23.9749 112.163 23.9749H118.274C118.827 23.9749 119.274 24.4226 119.274 24.9749V48.9991C119.274 49.5514 118.827 49.9991 118.274 49.9991H112.163Z" fill="white"/>
<path d="M151.055 49.9994C148.687 49.9994 146.566 49.4104 144.693 48.2324C142.855 47.0543 141.388 45.4479 140.293 43.4131C139.232 41.3783 138.702 39.0579 138.702 36.4519C138.702 33.8459 139.232 31.5255 140.293 29.4907C141.388 27.4559 142.855 25.8494 144.693 24.6714C146.566 23.4933 148.687 22.9043 151.055 22.9043C152.787 22.9043 154.342 23.2434 155.72 23.9217C157.134 24.6 158.282 25.546 159.166 26.7597C160.05 27.9378 160.544 29.2943 160.65 30.8294V42.0744C160.544 43.6094 160.05 44.9838 159.166 46.1976C158.318 47.3756 157.187 48.3038 155.773 48.982C154.359 49.6603 152.787 49.9994 151.055 49.9994ZM152.698 42.6099C154.43 42.6099 155.826 42.0387 156.886 40.8963C157.947 39.7183 158.477 38.2368 158.477 36.4519C158.477 35.2381 158.229 34.1672 157.735 33.239C157.275 32.3108 156.604 31.5969 155.72 31.0971C154.872 30.5616 153.882 30.2939 152.751 30.2939C151.62 30.2939 150.613 30.5616 149.729 31.0971C148.881 31.5969 148.192 32.3108 147.662 33.239C147.167 34.1672 146.92 35.2381 146.92 36.4519C146.92 37.6299 147.167 38.683 147.662 39.6112C148.157 40.5393 148.846 41.2712 149.729 41.8066C150.613 42.3421 151.603 42.6099 152.698 42.6099ZM159.159 49.464C158.606 49.464 158.159 49.0163 158.159 48.464V42.5448C158.159 42.4812 158.165 42.4178 158.177 42.3553L159.342 36.3201C159.366 36.1949 159.366 36.0663 159.342 35.9411L158.177 29.9058C158.165 29.8434 158.159 29.7799 158.159 29.7163V24.4398C158.159 23.8875 158.606 23.4398 159.159 23.4398H165.111C165.663 23.4398 166.111 23.8875 166.111 24.4398V48.464C166.111 49.0163 165.663 49.464 165.111 49.464H159.159Z" fill="white"/>
<path d="M169.521 49.9991C168.969 49.9991 168.521 49.5514 168.521 48.9991V24.9749C168.521 24.4226 168.969 23.9749 169.521 23.9749H175.633C176.185 23.9749 176.633 24.4226 176.633 24.9749V48.9991C176.633 49.5514 176.185 49.9991 175.633 49.9991H169.521ZM176.879 33.6598C176.655 34.4646 175.669 34.9415 175.013 34.424L173.732 33.4131C173.431 33.1755 173.291 32.7858 173.384 32.4136C174.068 29.6722 175.151 27.5197 176.633 25.9562C178.223 24.2784 180.432 23.4395 183.26 23.4395C184.497 23.4395 185.575 23.6358 186.494 24.0285C187.191 24.2892 187.822 24.6642 188.387 25.1535C188.754 25.4714 188.767 26.0209 188.467 26.4033L184.895 30.9629C184.512 31.452 183.774 31.466 183.227 31.1723C183.102 31.1056 182.972 31.0447 182.836 30.9897C182.305 30.7755 181.705 30.6684 181.033 30.6684C179.69 30.6684 178.612 31.0968 177.799 31.9535C177.379 32.3972 177.072 32.966 176.879 33.6598Z" fill="white"/>
<path fill-rule="evenodd" clip-rule="evenodd" d="M198.64 19.3007L198.574 13.7783C198.43 11.5437 197.739 9.82186 195.279 9.33594C190.377 8.36732 188.201 14.9147 192.27 17.2046C193.561 17.9308 194.69 17.7695 195.825 17.5635C195.971 18.4413 195.875 19.3547 195.915 20.2998C195.086 20.6119 193.294 20.3803 192.198 20.0393C190.899 19.6348 189.583 18.75 188.696 17.4567C185.115 12.2298 189.962 5.50614 195.56 6.64623C200.387 7.6291 200.739 11.5306 201.217 12.372C201.801 12.3817 203.235 12.4916 203.745 12.289C203.482 11.4416 203.44 10.6363 202.949 9.52815C201.589 6.46443 198.746 4.47672 195.699 4.05753C186.64 2.81029 181.232 13.9754 187.833 20.3899C190.261 22.7492 193.032 23.1406 195.907 23.0575C196.386 23.0438 196.758 23.0276 197.237 23.0153C197.715 23.0042 198.128 23.0793 198.588 23.0035C198.733 22.5562 198.639 19.9914 198.64 19.3007Z" fill="white"/>
<path fill-rule="evenodd" clip-rule="evenodd" d="M201.266 18.4337L201.331 23.9561C201.475 26.1907 202.166 27.9125 204.626 28.3984C209.529 29.3671 211.704 22.8197 207.636 20.5298C206.345 19.8036 205.215 19.9649 204.081 20.1709C203.935 19.2931 204.03 18.3797 203.991 17.4346C204.82 17.1225 206.611 17.3541 207.707 17.6951C209.006 18.0996 210.322 18.9844 211.209 20.2777C214.79 25.5046 209.943 32.2282 204.345 31.0881C199.518 30.1053 199.166 26.2038 198.689 25.3623C198.105 25.3527 196.67 25.2428 196.16 25.4454C196.423 26.2928 196.465 27.098 196.957 28.2062C198.316 31.2699 201.159 33.2577 204.206 33.6768C213.265 34.9241 218.673 23.759 212.072 17.3445C209.644 14.9852 206.874 14.5938 203.998 14.6769C203.519 14.6906 203.148 14.7068 202.668 14.7191C202.19 14.7302 201.777 14.6551 201.317 14.7309C201.172 15.1782 201.266 17.743 201.266 18.4337Z" fill="white"/>
</svg>
