<svg width="224" height="43" viewBox="0 0 224 43" fill="none" xmlns="http://www.w3.org/2000/svg">
<path d="M219.284 33.0225C219.93 33.0225 220.539 33.1496 221.112 33.4039C221.685 33.6461 222.184 33.9852 222.611 34.4212C223.038 34.845 223.373 35.3476 223.616 35.9288C223.872 36.498 224 37.1095 224 37.7635C224 38.4174 223.872 39.035 223.616 39.6163C223.373 40.1855 223.038 40.688 222.611 41.124C222.184 41.5478 221.685 41.8869 221.112 42.1412C220.539 42.3834 219.93 42.5045 219.284 42.5045C218.626 42.5045 218.01 42.3834 217.437 42.1412C216.864 41.8869 216.365 41.5478 215.938 41.124C215.512 40.688 215.17 40.1855 214.914 39.6163C214.671 39.035 214.549 38.4174 214.549 37.7635C214.549 37.1095 214.671 36.498 214.914 35.9288C215.17 35.3476 215.512 34.845 215.938 34.4212C216.365 33.9852 216.864 33.6461 217.437 33.4039C218.01 33.1496 218.626 33.0225 219.284 33.0225ZM219.284 40.3066C219.588 40.3066 219.869 40.246 220.125 40.1249C220.393 40.0038 220.624 39.8403 220.819 39.6345C221.027 39.4165 221.185 39.1622 221.295 38.8715C221.417 38.5688 221.478 38.2358 221.478 37.8725C221.478 37.5092 221.417 37.1701 221.295 36.8552C221.185 36.5404 221.027 36.2679 220.819 36.0378C220.624 35.7956 220.393 35.6079 220.125 35.4747C219.869 35.3294 219.588 35.2567 219.284 35.2567C218.979 35.2567 218.693 35.3294 218.425 35.4747C218.156 35.6079 217.919 35.7956 217.712 36.0378C217.517 36.2679 217.358 36.5404 217.236 36.8552C217.127 37.1701 217.072 37.5092 217.072 37.8725C217.072 38.2358 217.127 38.5688 217.236 38.8715C217.358 39.1622 217.517 39.4165 217.712 39.6345C217.919 39.8403 218.156 40.0038 218.425 40.1249C218.693 40.246 218.979 40.3066 219.284 40.3066Z" fill="white"/>
<path d="M213.808 42.2859H211.285V33.2761H213.808V42.2859ZM212.547 32.0409C212.157 32.0409 211.828 31.9077 211.559 31.6413C211.291 31.3749 211.157 31.0479 211.157 30.6604C211.157 30.2729 211.291 29.9459 211.559 29.6795C211.828 29.401 212.157 29.2617 212.547 29.2617C212.937 29.2617 213.266 29.401 213.534 29.6795C213.802 29.9459 213.936 30.2729 213.936 30.6604C213.936 31.0479 213.802 31.3749 213.534 31.6413C213.266 31.9077 212.937 32.0409 212.547 32.0409Z" fill="white"/>
<path d="M210.522 29.0254V42.2857H208.365L207.999 41.5046C207.719 41.7953 207.329 42.0375 206.829 42.2312C206.342 42.4129 205.83 42.5037 205.293 42.5037C204.647 42.5037 204.05 42.3826 203.502 42.1404C202.953 41.8861 202.478 41.547 202.076 41.1232C201.686 40.6872 201.375 40.1847 201.144 39.6155C200.924 39.0342 200.814 38.4166 200.814 37.7627C200.814 37.1087 200.924 36.4972 201.144 35.928C201.375 35.3468 201.686 34.8442 202.076 34.4203C202.478 33.9844 202.953 33.6453 203.502 33.4031C204.05 33.1488 204.647 33.0217 205.293 33.0217C205.866 33.0217 206.372 33.0883 206.811 33.2215C207.262 33.3547 207.658 33.5787 207.999 33.8936V29.0254H210.522ZM207.999 37.799C207.999 37.3267 207.938 36.9332 207.816 36.6183C207.694 36.2913 207.524 36.031 207.304 35.8372C207.085 35.6313 206.829 35.486 206.537 35.4012C206.256 35.3044 205.952 35.2559 205.622 35.2559C205.293 35.2559 204.983 35.3225 204.69 35.4557C204.41 35.589 204.16 35.7706 203.941 36.0007C203.733 36.2187 203.569 36.4851 203.447 36.7999C203.325 37.1027 203.264 37.4236 203.264 37.7627C203.264 38.1139 203.325 38.4408 203.447 38.7436C203.569 39.0463 203.733 39.3127 203.941 39.5428C204.16 39.7608 204.41 39.9364 204.69 40.0696C204.983 40.2028 205.293 40.2694 205.622 40.2694C206.281 40.2694 206.835 40.0696 207.286 39.67C207.749 39.2583 207.987 38.6346 207.999 37.799Z" fill="white"/>
<path d="M197.605 33.2773H200.128V42.2871H197.97L197.605 41.5968C197.312 41.8027 196.977 41.9722 196.599 42.1055C196.234 42.2266 195.838 42.2871 195.411 42.2871C195.082 42.2871 194.704 42.2387 194.278 42.1418C193.863 42.0449 193.473 41.8633 193.108 41.5968C192.742 41.3304 192.431 40.9611 192.175 40.4888C191.931 40.0165 191.81 39.4049 191.81 38.6541V33.2773H194.351V38.5633C194.351 38.8418 194.393 39.078 194.479 39.2717C194.576 39.4655 194.698 39.6229 194.844 39.744C195.003 39.853 195.179 39.9378 195.374 39.9983C195.569 40.0468 195.771 40.071 195.978 40.071C196.136 40.071 196.307 40.0468 196.49 39.9983C196.685 39.9378 196.861 39.847 197.02 39.7259C197.19 39.6048 197.331 39.4473 197.44 39.2536C197.55 39.0598 197.605 38.8297 197.605 38.5633V33.2773Z" fill="white"/>
<path d="M189.538 39.0525C189.538 39.4763 189.666 39.8033 189.922 40.0334C190.19 40.2635 190.537 40.3785 190.964 40.3785C191.305 40.3785 191.646 40.3119 191.987 40.1787V42.2858C191.683 42.3827 191.36 42.4614 191.018 42.522C190.677 42.5946 190.336 42.631 189.995 42.631C189.605 42.631 189.233 42.5825 188.879 42.4856C188.526 42.3888 188.209 42.2253 187.929 41.9952C187.649 41.753 187.423 41.4381 187.252 41.0506C187.094 40.651 187.015 40.1605 187.015 39.5793V35.5103H185.717V33.821L187.015 33.2761V31.2598H189.538V33.2761H191.987V35.5103H189.538V39.0525Z" fill="white"/>
<path d="M184.485 37.5625C185.156 38.0348 185.491 38.7069 185.491 39.5788C185.491 39.9784 185.393 40.3538 185.198 40.705C185.015 41.0562 184.76 41.365 184.43 41.6314C184.101 41.8978 183.717 42.1098 183.279 42.2672C182.84 42.4125 182.371 42.4852 181.871 42.4852C181.493 42.4852 181.122 42.4367 180.756 42.3398C180.402 42.243 180.073 42.1098 179.769 41.9402C179.464 41.7707 179.196 41.5709 178.964 41.3408C178.745 41.0986 178.58 40.8322 178.471 40.5415C178.751 40.4083 179.062 40.263 179.403 40.1056C179.744 39.936 180.043 39.7847 180.299 39.6515C180.409 39.8331 180.579 40.0026 180.811 40.1601C181.042 40.3054 181.359 40.378 181.761 40.378C182.176 40.378 182.48 40.2812 182.675 40.0874C182.87 39.8937 182.968 39.712 182.968 39.5425C182.968 39.4214 182.901 39.3124 182.767 39.2155C182.633 39.1065 182.48 39.0217 182.31 38.9612C182.066 38.8643 181.865 38.8159 181.707 38.8159C181.548 38.8038 181.365 38.7674 181.158 38.7069C180.5 38.5495 179.994 38.3436 179.641 38.0893C179.299 37.8229 179.05 37.5564 178.891 37.29C178.733 37.0236 178.641 36.7693 178.617 36.5271C178.605 36.2849 178.599 36.0911 178.599 35.9458C178.599 35.5583 178.684 35.189 178.855 34.8378C179.025 34.4866 179.257 34.1838 179.549 33.9295C179.854 33.6631 180.201 33.4512 180.591 33.2938C180.994 33.1363 181.42 33.0576 181.871 33.0576C182.249 33.0576 182.608 33.1121 182.95 33.2211C183.291 33.3301 183.602 33.4815 183.882 33.6752C184.162 33.869 184.4 34.0991 184.595 34.3655C184.802 34.6319 184.955 34.9286 185.052 35.2556L183.096 35.9095C183.023 35.6915 182.87 35.5159 182.639 35.3827C182.42 35.2495 182.182 35.1829 181.926 35.1829C181.67 35.1829 181.463 35.2677 181.304 35.4372C181.146 35.6067 181.067 35.7763 181.067 35.9458C181.067 36.1517 181.14 36.3152 181.286 36.4363C181.444 36.5453 181.615 36.624 181.798 36.6724C181.932 36.6966 182.06 36.7209 182.182 36.7451C182.316 36.7572 182.444 36.7754 182.566 36.7996C182.992 36.8965 183.358 37.0054 183.663 37.1265C183.98 37.2476 184.254 37.393 184.485 37.5625Z" fill="white"/>
<path d="M45.2123 42.631C42.976 42.631 40.9733 42.0834 39.2043 40.9881C37.4687 39.8929 36.0836 38.3994 35.0489 36.5076C34.0475 34.6158 33.5469 32.4585 33.5469 30.0357C33.5469 27.6129 34.0475 25.4556 35.0489 23.5638C36.0836 21.672 37.4687 20.1785 39.2043 19.0833C40.9733 17.988 42.976 17.4404 45.2123 17.4404C46.8478 17.4404 48.3164 17.7557 49.6181 18.3863C50.9532 19.0169 52.0379 19.8964 52.8724 21.0249C53.7068 22.1201 54.1741 23.3813 54.2742 24.8084V35.263C54.1741 36.6901 53.7068 37.9679 52.8724 39.0964C52.0713 40.1916 51.0032 41.0545 49.6681 41.6851C48.333 42.3157 46.8478 42.631 45.2123 42.631ZM46.7643 35.7608C48.3998 35.7608 49.7182 35.2298 50.7195 34.1678C51.7208 33.0725 52.2215 31.6952 52.2215 30.0357C52.2215 28.9073 51.9879 27.9116 51.5206 27.0487C51.0867 26.1858 50.4525 25.522 49.6181 25.0573C48.817 24.5595 47.8825 24.3106 46.8144 24.3106C45.7463 24.3106 44.795 24.5595 43.9606 25.0573C43.1596 25.522 42.5087 26.1858 42.008 27.0487C41.5408 27.9116 41.3071 28.9073 41.3071 30.0357C41.3071 31.131 41.5408 32.11 42.008 32.973C42.4753 33.8359 43.1262 34.5163 43.9606 35.0141C44.795 35.5119 45.7296 35.7608 46.7643 35.7608ZM55.6761 42.1332C53.6023 42.1332 51.9211 40.452 51.9211 38.3782V36.0969C51.9211 35.7741 51.9524 35.452 52.0145 35.1351L52.8841 30.6988C53.0086 30.0637 53.0086 29.4104 52.8841 28.7752L52.0145 24.3389C51.9524 24.0221 51.9211 23.7 51.9211 23.3771V21.6932C51.9211 19.6194 53.6023 17.9383 55.6761 17.9383V17.9383C57.7499 17.9383 59.431 19.6194 59.431 21.6932V38.3782C59.431 40.452 57.7499 42.1332 55.6761 42.1332V42.1332Z" fill="white"/>
<path d="M65.5351 42.6302C63.4199 42.6302 61.7051 40.9155 61.7051 38.8002V22.2654C61.7051 20.1501 63.4199 18.4353 65.5351 18.4353V18.4353C67.6504 18.4353 69.3652 20.1501 69.3652 22.2654V38.8002C69.3652 40.9155 67.6504 42.6302 65.5351 42.6302V42.6302ZM81.1057 42.6302C78.9904 42.6302 77.2756 40.9155 77.2756 38.8002V28.4917C77.2756 27.2637 76.8918 26.3178 76.1241 25.654C75.3898 24.957 74.4719 24.6085 73.3705 24.6085C72.6028 24.6085 71.9185 24.7745 71.3178 25.1064C70.717 25.4051 70.233 25.8365 69.8658 26.4007V26.4007C69.3435 27.2838 68.3119 28.0301 67.3721 27.6183L67.2955 27.5847C66.7583 27.3493 66.4023 26.8174 66.448 26.2327C66.5665 24.7176 66.9715 23.3963 67.6629 22.2687C68.4974 20.8747 69.6322 19.8127 71.0674 19.0825C72.5027 18.3192 74.1215 17.9375 75.9238 17.9375C77.6261 17.9375 79.1448 18.3192 80.4798 19.0825C81.8483 19.8459 82.9331 20.9079 83.7341 22.2687C84.5352 23.6294 84.9357 25.2557 84.9357 27.1475V38.8002C84.9357 40.9155 83.2209 42.6302 81.1057 42.6302V42.6302ZM96.6762 42.6302C94.5609 42.6302 92.8462 40.9155 92.8462 38.8002V28.4917C92.8462 27.2637 92.4623 26.3178 91.6946 25.654C90.9603 24.957 90.0425 24.6085 88.941 24.6085C88.1733 24.6085 87.4891 24.7745 86.8883 25.1064C86.2875 25.4051 85.8035 25.8365 85.4364 26.4007V26.4007C84.8502 27.3916 83.9203 28.354 82.7795 28.1993L82.4722 28.1576C81.3688 28.008 80.5317 27.0415 80.7338 25.9465C80.9634 24.7032 81.3794 23.5934 81.9818 22.6172C82.9164 21.1237 84.1347 19.9786 85.6366 19.1821C87.172 18.3524 88.8909 17.9375 90.7935 17.9375C92.6626 17.9375 94.3148 18.3358 95.75 19.1323C97.2186 19.8957 98.3701 21.0075 99.2045 22.4678C100.072 23.895 100.506 25.6208 100.506 27.6453V38.8002C100.506 40.9155 98.7915 42.6302 96.6762 42.6302V42.6302Z" fill="white"/>
<path d="M106.613 42.6304C104.498 42.6304 102.783 40.9157 102.783 38.8004V22.2656C102.783 20.1503 104.498 18.4355 106.613 18.4355V18.4355C108.729 18.4355 110.443 20.1503 110.443 22.2656V38.8004C110.443 40.9157 108.729 42.6304 106.613 42.6304V42.6304Z" fill="white"/>
<path d="M132.62 42.6302C130.505 42.6302 128.79 40.9155 128.79 38.8002V28.8401C128.79 27.5789 128.389 26.5667 127.588 25.8033C126.821 25.0068 125.836 24.6085 124.634 24.6085C123.8 24.6085 123.066 24.7911 122.432 25.1561C121.797 25.488 121.297 25.9859 120.93 26.6497V26.6497C120.399 27.5615 119.273 28.2998 118.325 27.8365L118.253 27.8013C117.746 27.5535 117.416 27.0377 117.459 26.4751C117.575 24.961 117.98 23.6087 118.677 22.418C119.511 20.9909 120.663 19.8957 122.131 19.1323C123.633 18.3358 125.319 17.9375 127.188 17.9375C128.99 17.9375 130.576 18.369 131.944 19.2319C133.346 20.0616 134.447 21.1734 135.248 22.5674C136.05 23.9613 136.45 25.488 136.45 27.1475V38.8002C136.45 40.9155 134.735 42.6302 132.62 42.6302V42.6302ZM116.549 42.6302C114.434 42.6302 112.719 40.9155 112.719 38.8002V22.2654C112.719 20.1501 114.434 18.4353 116.549 18.4353V18.4353C118.664 18.4353 120.379 20.1501 120.379 22.2654V38.8002C120.379 40.9155 118.664 42.6302 116.549 42.6302V42.6302Z" fill="white"/>
<path d="M150.392 42.631C148.156 42.631 146.153 42.0834 144.384 40.9881C142.648 39.8929 141.263 38.3994 140.229 36.5076C139.227 34.6158 138.727 32.4585 138.727 30.0357C138.727 27.6129 139.227 25.4556 140.229 23.5638C141.263 21.672 142.648 20.1785 144.384 19.0833C146.153 17.988 148.156 17.4404 150.392 17.4404C152.027 17.4404 153.496 17.7557 154.798 18.3863C156.133 19.0169 157.218 19.8964 158.052 21.0249C158.886 22.1201 159.354 23.3813 159.454 24.8084V35.263C159.354 36.6901 158.886 37.9679 158.052 39.0964C157.251 40.1916 156.183 41.0545 154.848 41.6851C153.513 42.3157 152.027 42.631 150.392 42.631ZM151.944 35.7608C153.579 35.7608 154.898 35.2298 155.899 34.1678C156.901 33.0725 157.401 31.6952 157.401 30.0357C157.401 28.9073 157.168 27.9116 156.7 27.0487C156.266 26.1858 155.632 25.522 154.798 25.0573C153.997 24.5595 153.062 24.3106 151.994 24.3106C150.926 24.3106 149.975 24.5595 149.14 25.0573C148.339 25.522 147.688 26.1858 147.188 27.0487C146.72 27.9116 146.487 28.9073 146.487 30.0357C146.487 31.131 146.72 32.11 147.188 32.973C147.655 33.8359 148.306 34.5163 149.14 35.0141C149.975 35.5119 150.909 35.7608 151.944 35.7608ZM160.856 42.1332C158.782 42.1332 157.101 40.452 157.101 38.3782V36.0969C157.101 35.7741 157.132 35.452 157.194 35.1351L158.064 30.6988C158.188 30.0637 158.188 29.4104 158.064 28.7752L157.194 24.3389C157.132 24.0221 157.101 23.7 157.101 23.3771V21.6932C157.101 19.6194 158.782 17.9383 160.856 17.9383V17.9383C162.93 17.9383 164.611 19.6194 164.611 21.6932V38.3782C164.611 40.452 162.93 42.1332 160.856 42.1332V42.1332Z" fill="white"/>
<path d="M170.716 42.6302C168.601 42.6302 166.886 40.9155 166.886 38.8002V22.2654C166.886 20.1501 168.601 18.4353 170.716 18.4353V18.4353C172.831 18.4353 174.546 20.1501 174.546 22.2654V38.8002C174.546 40.9155 172.831 42.6302 170.716 42.6302V42.6302ZM175.247 26.3644C174.572 27.4288 173.097 28.2122 172.101 27.439V27.439C171.638 27.0787 171.419 26.4813 171.574 25.9149C172.223 23.5398 173.214 21.6606 174.546 20.2773C176.048 18.7174 178.134 17.9375 180.804 17.9375C181.972 17.9375 182.99 18.12 183.858 18.4851V18.4851C185.409 19.0564 185.454 21.03 184.425 22.3234L182.604 24.6108C182.106 25.2366 181.147 25.2526 180.404 24.957V24.957C179.903 24.7579 179.335 24.6583 178.701 24.6583C177.433 24.6583 176.415 25.0566 175.647 25.8531C175.499 26.0073 175.366 26.1777 175.247 26.3644Z" fill="white"/>
<path d="M25.6193 22.8491C25.6193 19.6995 23.0667 17.1465 19.9185 17.1465C16.7699 17.1465 14.2178 19.6999 14.2178 22.8491V25.5518C14.2178 27.2086 15.5609 28.5518 17.2178 28.5518H19.9185C23.0667 28.5518 25.6193 25.9984 25.6193 22.8491Z" fill="white"/>
<path d="M9.62189 28.3236H9.74799C11.4048 28.3236 12.748 26.9804 12.748 25.3236V10.3025C12.748 4.97669 8.4403 0.65918 3.1261 0.65918H3C1.34315 0.65918 0 2.00233 0 3.65918V18.6802C0 24.006 4.30811 28.3236 9.62189 28.3236Z" fill="white"/>
<path d="M2.95806 39.5454V39.6593C2.95806 41.3162 4.30121 42.6593 5.95806 42.6593H21.0495C26.3961 42.6593 30.7305 38.3684 30.7305 33.0749V32.9609C30.7305 31.3041 29.3873 29.9609 27.7305 29.9609H12.639C7.29243 29.9609 2.95806 34.2523 2.95806 39.5454Z" fill="white"/>
</svg>
