<svg width="174" height="41" viewBox="0 0 174 41" fill="none" xmlns="http://www.w3.org/2000/svg">
<path fill-rule="evenodd" clip-rule="evenodd" d="M148.144 14.648L148.083 9.48597C147.946 7.39721 147.293 5.78773 144.966 5.33352C140.329 4.42812 138.272 10.5482 142.12 12.6886C143.341 13.3674 144.409 13.2167 145.482 13.0242C145.62 13.8446 145.53 14.6984 145.567 15.5819C144.783 15.8736 143.089 15.6571 142.052 15.3383C140.823 14.9603 139.579 14.1332 138.74 12.9243C135.353 8.03853 139.938 1.75365 145.232 2.81935C149.797 3.73807 150.13 7.38491 150.582 8.17149C151.134 8.18051 152.491 8.28326 152.973 8.09382C152.724 7.30178 152.685 6.54905 152.22 5.51318C150.934 2.64941 148.245 0.791419 145.364 0.39958C136.796 -0.766262 131.681 9.67018 137.924 15.6661C140.22 17.8714 142.841 18.2372 145.56 18.1595C146.013 18.1468 146.365 18.1316 146.818 18.1201C147.27 18.1098 147.661 18.1799 148.096 18.1091C148.233 17.691 148.144 15.2936 148.144 14.648Z" fill="white"/>
<path fill-rule="evenodd" clip-rule="evenodd" d="M150.628 13.8379L150.69 18.9999C150.827 21.0886 151.48 22.6981 153.806 23.1523C158.443 24.0577 160.501 17.9377 156.653 15.7972C155.432 15.1184 154.364 15.2692 153.29 15.4617C153.152 14.6412 153.243 13.7874 153.205 12.904C153.989 12.6123 155.684 12.8287 156.72 13.1475C157.949 13.5256 159.194 14.3526 160.032 15.5615C163.42 20.4473 158.835 26.7322 153.541 25.6665C148.975 24.7478 148.642 21.1009 148.191 20.3144C147.638 20.3053 146.282 20.2026 145.8 20.392C146.048 21.1841 146.088 21.9368 146.553 22.9727C147.838 25.8364 150.528 27.6944 153.409 28.0863C161.977 29.2521 167.092 18.8157 160.849 12.8198C158.553 10.6145 155.932 10.2486 153.213 10.3263C152.76 10.3391 152.408 10.3542 151.955 10.3658C151.503 10.3761 151.112 10.3059 150.677 10.3768C150.539 10.7949 150.629 13.1922 150.628 13.8379Z" fill="white"/>
<path d="M6.89064 33.4235C6.89064 33.9033 7.27961 34.2923 7.75942 34.2923H17.2994C17.7792 34.2923 18.1681 34.6812 18.1681 35.161V38.7133C18.1681 39.1932 17.7792 39.5821 17.2994 39.5821H1.86877C1.38896 39.5821 1 39.1932 1 38.7133V13.0749C1 12.5951 1.38896 12.2061 1.86877 12.2061H6.02187C6.50168 12.2061 6.89064 12.5951 6.89064 13.0749V33.4235Z" fill="white"/>
<path d="M39.1567 20.4305C39.6365 20.4305 40.0255 20.8195 40.0255 21.2993V38.7133C40.0255 39.1932 39.6365 39.5821 39.1567 39.5821H35.9876C35.6493 39.5821 35.3534 39.3544 35.2667 39.0274C35.1068 38.4244 34.296 38.2593 33.8108 38.6515C33.3098 39.0564 32.759 39.3538 32.1584 39.5435C31.125 39.8781 30.0398 40.0455 28.903 40.0455C27.5337 40.0455 26.2678 39.788 25.1051 39.2732C23.9683 38.7326 22.9736 38.0119 22.1211 37.1109C21.2685 36.1843 20.5967 35.116 20.1058 33.9061C19.6408 32.6706 19.4083 31.3577 19.4083 29.9677C19.4083 28.5777 19.6408 27.2777 20.1058 26.0679C20.5967 24.8323 21.2685 23.764 22.1211 22.8631C22.9736 21.9364 23.9683 21.2156 25.1051 20.7008C26.2678 20.1602 27.5337 19.8899 28.903 19.8899C30.1432 19.8899 31.28 20.083 32.3134 20.4691C32.8866 20.6833 33.4042 20.9687 33.8661 21.3254C34.3356 21.688 35.0989 21.5284 35.2624 20.9582C35.352 20.6458 35.6377 20.4305 35.9627 20.4305H39.1567ZM34.6774 30.0449C34.6774 29.041 34.5353 28.2044 34.2511 27.5351C33.9928 26.8401 33.6311 26.2867 33.166 25.8748C32.7268 25.4372 32.1972 25.1283 31.5771 24.9481C30.9829 24.7422 30.337 24.6392 29.6394 24.6392C28.9418 24.6392 28.283 24.7808 27.6629 25.064C27.0687 25.3471 26.539 25.7332 26.074 26.2223C25.6089 26.6857 25.2472 27.252 24.9889 27.9213C24.7305 28.5648 24.6013 29.2469 24.6013 29.9677C24.6013 30.7142 24.7305 31.4092 24.9889 32.0528C25.2472 32.6963 25.6089 33.2626 26.074 33.7517C26.539 34.215 27.0687 34.5883 27.6629 34.8714C28.283 35.1546 28.9418 35.2962 29.6394 35.2962C31.0345 35.2962 32.2101 34.8714 33.166 34.022C34.1478 33.1468 34.6516 31.8211 34.6774 30.0449Z" fill="white"/>
<path d="M64.4949 20.4305C65.1924 20.4305 65.9417 20.5464 66.7426 20.778C67.5435 21.0097 68.2799 21.4216 68.9516 22.0136C69.6492 22.6057 70.2176 23.4165 70.6568 24.4462C71.096 25.4758 71.3156 26.7886 71.3156 28.3846V38.7133C71.3156 39.1932 70.9267 39.5821 70.4468 39.5821H66.8363C66.3565 39.5821 65.9675 39.1932 65.9675 38.7133V29.3499C65.9675 28.5777 65.8771 27.9213 65.6963 27.3807C65.5412 26.8401 65.3216 26.4025 65.0374 26.0679C64.7532 25.7332 64.4174 25.5016 64.0298 25.3729C63.6681 25.2184 63.2935 25.1412 62.9059 25.1412C62.5442 25.1412 62.1825 25.2055 61.8208 25.3343C61.4591 25.463 61.1362 25.6818 60.852 25.9907C60.5678 26.2996 60.3352 26.7243 60.1544 27.2649C59.9994 27.8054 59.9219 28.4876 59.9219 29.3113V38.7133C59.9219 39.1932 59.5329 39.5821 59.0531 39.5821H55.4426C54.9628 39.5821 54.5738 39.1932 54.5738 38.7133V29.3499C54.5738 27.7797 54.3025 26.6857 53.7599 26.0679C53.2174 25.4501 52.4294 25.1412 51.3959 25.1412C50.6467 25.1412 49.9749 25.4887 49.3807 26.1837C48.7865 26.8787 48.4894 27.9599 48.4894 29.4271V38.7133C48.4894 39.1932 48.1004 39.5821 47.6206 39.5821H44.0101C43.5303 39.5821 43.1413 39.1932 43.1413 38.7133V21.2993C43.1413 20.8195 43.5303 20.4305 44.0101 20.4305H47.1455C47.491 20.4305 47.8036 20.6352 47.9418 20.9518L47.9927 21.0685C48.234 21.6215 48.9565 21.766 49.4658 21.4427C49.8032 21.2287 50.1623 21.0457 50.5433 20.8939C51.3443 20.585 52.1969 20.4305 53.1011 20.4305C53.5662 20.4305 54.0571 20.482 54.5738 20.585C55.0905 20.6622 55.5943 20.8166 56.0852 21.0483C56.5761 21.28 57.0411 21.5889 57.4804 21.975C57.6122 22.0772 57.7399 22.1876 57.8634 22.3063C58.3219 22.7469 59.1233 22.7496 59.5879 22.3154C59.6708 22.238 59.7563 22.1631 59.8444 22.0908C60.2836 21.7047 60.7615 21.3958 61.2783 21.1641C61.795 20.9067 62.3246 20.7265 62.8672 20.6236C63.4356 20.4949 63.9781 20.4305 64.4949 20.4305Z" fill="white"/>
<path d="M80.1673 38.7133C80.1673 39.1932 79.7784 39.5821 79.2985 39.5821H75.688C75.2082 39.5821 74.8192 39.1932 74.8192 38.7133V21.2993C74.8192 20.8195 75.2082 20.4305 75.688 20.4305H79.2985C79.7784 20.4305 80.1673 20.8195 80.1673 21.2993V38.7133ZM77.4933 17.8049C76.6665 17.8049 75.9689 17.5217 75.4005 16.9554C74.8322 16.3891 74.548 15.6941 74.548 14.8704C74.548 14.0466 74.8322 13.3516 75.4005 12.7853C75.9689 12.1933 76.6665 11.8972 77.4933 11.8972C78.32 11.8972 79.0176 12.1933 79.586 12.7853C80.1544 13.3516 80.4386 14.0466 80.4386 14.8704C80.4386 15.6941 80.1544 16.3891 79.586 16.9554C79.0176 17.5217 78.32 17.8049 77.4933 17.8049Z" fill="white"/>
<path d="M93.7673 20.4305C94.4907 20.4305 95.2917 20.5335 96.1701 20.7394C97.0485 20.9453 97.8753 21.3315 98.6504 21.8978C99.4255 22.4641 100.071 23.2492 100.588 24.2531C101.131 25.257 101.402 26.557 101.402 28.1529V38.7133C101.402 39.1932 101.013 39.5821 100.533 39.5821H96.8838C96.404 39.5821 96.0151 39.1932 96.0151 38.7133V28.346C96.0151 27.7539 95.9117 27.252 95.705 26.8401C95.5242 26.4283 95.2658 26.1065 94.93 25.8748C94.6199 25.6174 94.2582 25.4372 93.8448 25.3343C93.4315 25.2055 93.0181 25.1412 92.6047 25.1412C92.2688 25.1412 91.8942 25.2055 91.4808 25.3343C91.0933 25.4372 90.7187 25.6174 90.357 25.8748C90.0211 26.1322 89.7369 26.4669 89.5044 26.8787C89.2718 27.2906 89.1556 27.7797 89.1556 28.346V38.7133C89.1556 39.1932 88.7666 39.5821 88.2868 39.5821H84.6763C84.1965 39.5821 83.8075 39.1932 83.8075 38.7133V21.2993C83.8075 20.8195 84.1965 20.4305 84.6763 20.4305H87.8569C88.179 20.4305 88.4746 20.6087 88.6251 20.8935L88.6939 21.0239C88.9387 21.4872 89.5344 21.6266 89.9985 21.3832C90.3899 21.178 90.8065 21.002 91.2483 20.8552C92.0234 20.5721 92.8631 20.4305 93.7673 20.4305Z" fill="white"/>
<path d="M123.593 20.4305C124.072 20.4305 124.461 20.8195 124.461 21.2993V38.7133C124.461 39.1932 124.072 39.5821 123.593 39.5821H120.423C120.085 39.5821 119.789 39.3544 119.702 39.0274C119.543 38.4244 118.732 38.2593 118.247 38.6515C117.746 39.0564 117.195 39.3538 116.594 39.5435C115.561 39.8781 114.476 40.0455 113.339 40.0455C111.97 40.0455 110.704 39.788 109.541 39.2732C108.404 38.7326 107.409 38.0119 106.557 37.1109C105.704 36.1843 105.032 35.116 104.542 33.9061C104.077 32.6706 103.844 31.3577 103.844 29.9677C103.844 28.5777 104.077 27.2777 104.542 26.0679C105.032 24.8323 105.704 23.764 106.557 22.8631C107.409 21.9364 108.404 21.2156 109.541 20.7008C110.704 20.1602 111.97 19.8899 113.339 19.8899C114.579 19.8899 115.716 20.083 116.749 20.4691C117.322 20.6833 117.84 20.9687 118.302 21.3254C118.771 21.688 119.535 21.5284 119.698 20.9582C119.788 20.6458 120.073 20.4305 120.398 20.4305H123.593ZM119.113 30.0449C119.113 29.041 118.971 28.2044 118.687 27.5351C118.429 26.8401 118.067 26.2867 117.602 25.8748C117.163 25.4372 116.633 25.1283 116.013 24.9481C115.419 24.7422 114.773 24.6392 114.075 24.6392C113.378 24.6392 112.719 24.7808 112.099 25.064C111.504 25.3471 110.975 25.7332 110.51 26.2223C110.045 26.6857 109.683 27.252 109.425 27.9213C109.166 28.5648 109.037 29.2469 109.037 29.9677C109.037 30.7142 109.166 31.4092 109.425 32.0528C109.683 32.6963 110.045 33.2626 110.51 33.7517C110.975 34.215 111.504 34.5883 112.099 34.8714C112.719 35.1546 113.378 35.2962 114.075 35.2962C115.47 35.2962 116.646 34.8714 117.602 34.022C118.584 33.1468 119.087 31.8211 119.113 30.0449Z" fill="white"/>
<path d="M132.537 21.6564C132.634 22.1692 133.344 22.3181 133.7 21.9364C134.036 21.5503 134.437 21.2156 134.902 20.9325C135.367 20.6236 135.896 20.379 136.491 20.1988C137.085 20.0187 137.757 19.9286 138.506 19.9286C139.197 19.9286 139.977 20.0243 140.844 20.2156C141.262 20.3079 141.534 20.7061 141.489 21.1321L141.156 24.2716C141.106 24.7412 140.667 25.0719 140.211 24.9481C139.978 24.8966 139.72 24.858 139.436 24.8323C139.152 24.7808 138.893 24.7551 138.661 24.7551C137.834 24.7551 137.059 24.8709 136.336 25.1026C135.638 25.3343 135.031 25.656 134.514 26.0679C133.997 26.4797 133.584 26.9817 133.274 27.5738C132.964 28.1401 132.809 28.7579 132.809 29.4271V38.7133C132.809 39.1932 132.42 39.5821 131.94 39.5821H128.33C127.85 39.5821 127.461 39.1932 127.461 38.7133V21.2993C127.461 20.8195 127.85 20.4305 128.33 20.4305H131.64C132.026 20.4305 132.357 20.7048 132.429 21.0837L132.537 21.6564Z" fill="white"/>
<path d="M140.143 36.4314C140.652 36.7928 140.907 37.3071 140.907 37.9743C140.907 38.2801 140.833 38.5674 140.685 38.8361C140.546 39.1049 140.351 39.3412 140.101 39.5451C139.851 39.7489 139.559 39.9111 139.225 40.0316C138.892 40.1428 138.535 40.1984 138.155 40.1984C137.868 40.1984 137.585 40.1613 137.307 40.0872C137.038 40.013 136.788 39.9111 136.556 39.7814C136.325 39.6516 136.121 39.4987 135.945 39.3226C135.778 39.1373 135.653 38.9334 135.569 38.711C135.782 38.6091 136.019 38.4979 136.278 38.3774C136.538 38.2477 136.765 38.1318 136.959 38.0299C137.043 38.1689 137.173 38.2987 137.349 38.4191C137.525 38.5303 137.766 38.5859 138.071 38.5859C138.386 38.5859 138.618 38.5118 138.766 38.3635C138.915 38.2153 138.989 38.0762 138.989 37.9465C138.989 37.8538 138.938 37.7704 138.836 37.6963C138.734 37.6129 138.618 37.548 138.488 37.5017C138.303 37.4276 138.15 37.3905 138.03 37.3905C137.909 37.3812 137.77 37.3534 137.613 37.3071C137.112 37.1866 136.728 37.0291 136.459 36.8345C136.199 36.6306 136.01 36.4267 135.889 36.2229C135.769 36.019 135.699 35.8244 135.681 35.6391C135.671 35.4537 135.667 35.3054 135.667 35.1942C135.667 34.8977 135.732 34.6151 135.861 34.3463C135.991 34.0776 136.167 33.8459 136.389 33.6513C136.621 33.4474 136.885 33.2853 137.182 33.1648C137.488 33.0443 137.812 32.9841 138.155 32.9841C138.442 32.9841 138.715 33.0258 138.975 33.1092C139.234 33.1926 139.471 33.3084 139.684 33.4567C139.897 33.605 140.078 33.781 140.226 33.9849C140.383 34.1888 140.499 34.4158 140.573 34.666L139.086 35.1664C139.031 34.9996 138.915 34.8653 138.739 34.7633C138.572 34.6614 138.391 34.6104 138.197 34.6104C138.002 34.6104 137.844 34.6753 137.724 34.805C137.603 34.9348 137.543 35.0645 137.543 35.1942C137.543 35.3518 137.599 35.4769 137.71 35.5695C137.83 35.653 137.96 35.7132 138.099 35.7503C138.201 35.7688 138.298 35.7873 138.391 35.8059C138.493 35.8151 138.59 35.829 138.683 35.8476C139.007 35.9217 139.285 36.0051 139.517 36.0978C139.758 36.1904 139.966 36.3016 140.143 36.4314Z" fill="white"/>
<path d="M144.332 37.5712C144.332 37.8955 144.429 38.1457 144.623 38.3218C144.827 38.4979 145.091 38.5859 145.416 38.5859C145.675 38.5859 145.935 38.535 146.194 38.433V40.0455C145.963 40.1196 145.717 40.1798 145.457 40.2262C145.198 40.2818 144.939 40.3096 144.679 40.3096C144.383 40.3096 144.1 40.2725 143.831 40.1984C143.562 40.1242 143.321 39.9991 143.108 39.8231C142.895 39.6377 142.724 39.3968 142.594 39.1002C142.474 38.7944 142.413 38.4191 142.413 37.9743V34.8606H141.426V33.5679L142.413 33.1509V31.6079H144.332V33.1509H146.194V34.8606H144.332V37.5712Z" fill="white"/>
<path d="M151.335 33.1509H153.253V40.0455H151.613L151.335 39.5173C151.112 39.6748 150.857 39.8045 150.57 39.9065C150.292 39.9991 149.991 40.0455 149.667 40.0455C149.416 40.0455 149.129 40.0084 148.805 39.9343C148.49 39.8601 148.193 39.7211 147.915 39.5173C147.637 39.3134 147.401 39.0307 147.206 38.6693C147.021 38.3079 146.928 37.8399 146.928 37.2654V33.1509H148.86V37.1959C148.86 37.409 148.893 37.5897 148.958 37.738C149.032 37.8863 149.125 38.0067 149.236 38.0994C149.356 38.1828 149.491 38.2477 149.639 38.294C149.787 38.3311 149.94 38.3496 150.098 38.3496C150.218 38.3496 150.348 38.3311 150.487 38.294C150.635 38.2477 150.769 38.1782 150.89 38.0855C151.02 37.9928 151.126 37.8724 151.21 37.7241C151.293 37.5758 151.335 37.3998 151.335 37.1959V33.1509Z" fill="white"/>
<path d="M161.329 29.8982V40.0455H159.688L159.41 39.4477C159.197 39.6702 158.901 39.8555 158.521 40.0038C158.15 40.1428 157.761 40.2123 157.353 40.2123C156.862 40.2123 156.408 40.1196 155.991 39.9343C155.574 39.7397 155.212 39.4802 154.907 39.1558C154.61 38.8222 154.374 38.4377 154.198 38.0021C154.031 37.5573 153.948 37.0847 153.948 36.5843C153.948 36.0839 154.031 35.6159 154.198 35.1803C154.374 34.7355 154.61 34.351 154.907 34.0266C155.212 33.693 155.574 33.4335 155.991 33.2482C156.408 33.0536 156.862 32.9563 157.353 32.9563C157.789 32.9563 158.173 33.0072 158.507 33.1092C158.85 33.2111 159.151 33.3826 159.41 33.6235V29.8982H161.329ZM159.41 36.6121C159.41 36.2507 159.364 35.9495 159.271 35.7086C159.179 35.4583 159.049 35.2591 158.882 35.1108C158.715 34.9533 158.521 34.8421 158.298 34.7772C158.085 34.7031 157.854 34.666 157.603 34.666C157.353 34.666 157.117 34.717 156.894 34.8189C156.681 34.9209 156.491 35.0599 156.325 35.2359C156.167 35.4027 156.042 35.6066 155.949 35.8476C155.857 36.0792 155.81 36.3248 155.81 36.5843C155.81 36.853 155.857 37.1032 155.949 37.3349C156.042 37.5666 156.167 37.7704 156.325 37.9465C156.491 38.1133 156.681 38.2477 156.894 38.3496C157.117 38.4516 157.353 38.5025 157.603 38.5025C158.104 38.5025 158.525 38.3496 158.868 38.0438C159.22 37.7287 159.401 37.2515 159.41 36.6121Z" fill="white"/>
<path d="M164.524 40.0455H162.605V33.1509H164.524V40.0455ZM163.564 32.2057C163.268 32.2057 163.018 32.1037 162.814 31.8999C162.61 31.696 162.508 31.4458 162.508 31.1492C162.508 30.8527 162.61 30.6025 162.814 30.3986C163.018 30.1855 163.268 30.0789 163.564 30.0789C163.861 30.0789 164.111 30.1855 164.315 30.3986C164.519 30.6025 164.621 30.8527 164.621 31.1492C164.621 31.4458 164.519 31.696 164.315 31.8999C164.111 32.1037 163.861 32.2057 163.564 32.2057Z" fill="white"/>
<path d="M169.207 32.9563C169.698 32.9563 170.161 33.0536 170.597 33.2482C171.033 33.4335 171.413 33.693 171.737 34.0266C172.061 34.351 172.316 34.7355 172.501 35.1803C172.696 35.6159 172.793 36.0839 172.793 36.5843C172.793 37.0847 172.696 37.5573 172.501 38.0021C172.316 38.4377 172.061 38.8222 171.737 39.1558C171.413 39.4802 171.033 39.7397 170.597 39.9343C170.161 40.1196 169.698 40.2123 169.207 40.2123C168.707 40.2123 168.239 40.1196 167.803 39.9343C167.368 39.7397 166.988 39.4802 166.663 39.1558C166.339 38.8222 166.079 38.4377 165.885 38.0021C165.699 37.5573 165.607 37.0847 165.607 36.5843C165.607 36.0839 165.699 35.6159 165.885 35.1803C166.079 34.7355 166.339 34.351 166.663 34.0266C166.988 33.693 167.368 33.4335 167.803 33.2482C168.239 33.0536 168.707 32.9563 169.207 32.9563ZM169.207 38.5303C169.439 38.5303 169.652 38.484 169.846 38.3913C170.05 38.2987 170.226 38.1735 170.375 38.016C170.532 37.8492 170.653 37.6546 170.736 37.4322C170.829 37.2005 170.875 36.9457 170.875 36.6677C170.875 36.3897 170.829 36.1302 170.736 35.8893C170.653 35.6483 170.532 35.4398 170.375 35.2637C170.226 35.0784 170.05 34.9348 169.846 34.8328C169.652 34.7216 169.439 34.666 169.207 34.666C168.975 34.666 168.758 34.7216 168.554 34.8328C168.35 34.9348 168.169 35.0784 168.012 35.2637C167.863 35.4398 167.743 35.6483 167.65 35.8893C167.567 36.1302 167.525 36.3897 167.525 36.6677C167.525 36.9457 167.567 37.2005 167.65 37.4322C167.743 37.6546 167.863 37.8492 168.012 38.016C168.169 38.1735 168.35 38.2987 168.554 38.3913C168.758 38.484 168.975 38.5303 169.207 38.5303Z" fill="white"/>
<path fill-rule="evenodd" clip-rule="evenodd" d="M148.144 14.648L148.083 9.48597C147.946 7.39721 147.293 5.78773 144.966 5.33352C140.329 4.42812 138.272 10.5482 142.12 12.6886C143.341 13.3674 144.409 13.2167 145.482 13.0242C145.62 13.8446 145.53 14.6984 145.567 15.5819C144.783 15.8736 143.089 15.6571 142.052 15.3383C140.823 14.9603 139.579 14.1332 138.74 12.9243C135.353 8.03853 139.938 1.75365 145.232 2.81935C149.797 3.73807 150.13 7.38491 150.582 8.17149C151.134 8.18051 152.491 8.28326 152.973 8.09382C152.724 7.30178 152.685 6.54905 152.22 5.51318C150.934 2.64941 148.245 0.791419 145.364 0.39958C136.796 -0.766262 131.681 9.67018 137.924 15.6661C140.22 17.8714 142.841 18.2372 145.56 18.1595C146.013 18.1468 146.365 18.1316 146.818 18.1201C147.27 18.1098 147.661 18.1799 148.096 18.1091C148.233 17.691 148.144 15.2936 148.144 14.648Z" stroke="white" stroke-width="0.5"/>
<path fill-rule="evenodd" clip-rule="evenodd" d="M150.628 13.8379L150.69 18.9999C150.827 21.0886 151.48 22.6981 153.806 23.1523C158.443 24.0577 160.501 17.9377 156.653 15.7972C155.432 15.1184 154.364 15.2692 153.29 15.4617C153.152 14.6412 153.243 13.7874 153.205 12.904C153.989 12.6123 155.684 12.8287 156.72 13.1475C157.949 13.5256 159.194 14.3526 160.032 15.5615C163.42 20.4473 158.835 26.7322 153.541 25.6665C148.975 24.7478 148.642 21.1009 148.191 20.3144C147.638 20.3053 146.282 20.2026 145.8 20.392C146.048 21.1841 146.088 21.9368 146.553 22.9727C147.838 25.8364 150.528 27.6944 153.409 28.0863C161.977 29.2521 167.092 18.8157 160.849 12.8198C158.553 10.6145 155.932 10.2486 153.213 10.3263C152.76 10.3391 152.408 10.3542 151.955 10.3658C151.503 10.3761 151.112 10.3059 150.677 10.3768C150.539 10.7949 150.629 13.1922 150.628 13.8379Z" stroke="white" stroke-width="0.5"/>
<path d="M6.89064 33.4235C6.89064 33.9033 7.27961 34.2923 7.75942 34.2923H17.2994C17.7792 34.2923 18.1681 34.6812 18.1681 35.161V38.7133C18.1681 39.1932 17.7792 39.5821 17.2994 39.5821H1.86877C1.38896 39.5821 1 39.1932 1 38.7133V13.0749C1 12.5951 1.38896 12.2061 1.86877 12.2061H6.02187C6.50168 12.2061 6.89064 12.5951 6.89064 13.0749V33.4235Z" stroke="white" stroke-width="0.5"/>
<path d="M39.1567 20.4305C39.6365 20.4305 40.0255 20.8195 40.0255 21.2993V38.7133C40.0255 39.1932 39.6365 39.5821 39.1567 39.5821H35.9876C35.6493 39.5821 35.3534 39.3544 35.2667 39.0274C35.1068 38.4244 34.296 38.2593 33.8108 38.6515C33.3098 39.0564 32.759 39.3538 32.1584 39.5435C31.125 39.8781 30.0398 40.0455 28.903 40.0455C27.5337 40.0455 26.2678 39.788 25.1051 39.2732C23.9683 38.7326 22.9736 38.0119 22.1211 37.1109C21.2685 36.1843 20.5967 35.116 20.1058 33.9061C19.6408 32.6706 19.4083 31.3577 19.4083 29.9677C19.4083 28.5777 19.6408 27.2777 20.1058 26.0679C20.5967 24.8323 21.2685 23.764 22.1211 22.8631C22.9736 21.9364 23.9683 21.2156 25.1051 20.7008C26.2678 20.1602 27.5337 19.8899 28.903 19.8899C30.1432 19.8899 31.28 20.083 32.3134 20.4691C32.8866 20.6833 33.4042 20.9687 33.8661 21.3254C34.3356 21.688 35.0989 21.5284 35.2624 20.9582C35.352 20.6458 35.6377 20.4305 35.9627 20.4305H39.1567ZM34.6774 30.0449C34.6774 29.041 34.5353 28.2044 34.2511 27.5351C33.9928 26.8401 33.6311 26.2867 33.166 25.8748C32.7268 25.4372 32.1972 25.1283 31.5771 24.9481C30.9829 24.7422 30.337 24.6392 29.6394 24.6392C28.9418 24.6392 28.283 24.7808 27.6629 25.064C27.0687 25.3471 26.539 25.7332 26.074 26.2223C25.6089 26.6857 25.2472 27.252 24.9889 27.9213C24.7305 28.5648 24.6013 29.2469 24.6013 29.9677C24.6013 30.7142 24.7305 31.4092 24.9889 32.0528C25.2472 32.6963 25.6089 33.2626 26.074 33.7517C26.539 34.215 27.0687 34.5883 27.6629 34.8714C28.283 35.1546 28.9418 35.2962 29.6394 35.2962C31.0345 35.2962 32.2101 34.8714 33.166 34.022C34.1478 33.1468 34.6516 31.8211 34.6774 30.0449Z" stroke="white" stroke-width="0.5"/>
<path d="M64.4949 20.4305C65.1924 20.4305 65.9417 20.5464 66.7426 20.778C67.5435 21.0097 68.2799 21.4216 68.9516 22.0136C69.6492 22.6057 70.2176 23.4165 70.6568 24.4462C71.096 25.4758 71.3156 26.7886 71.3156 28.3846V38.7133C71.3156 39.1932 70.9267 39.5821 70.4468 39.5821H66.8363C66.3565 39.5821 65.9675 39.1932 65.9675 38.7133V29.3499C65.9675 28.5777 65.8771 27.9213 65.6963 27.3807C65.5412 26.8401 65.3216 26.4025 65.0374 26.0679C64.7532 25.7332 64.4174 25.5016 64.0298 25.3729C63.6681 25.2184 63.2935 25.1412 62.9059 25.1412C62.5442 25.1412 62.1825 25.2055 61.8208 25.3343C61.4591 25.463 61.1362 25.6818 60.852 25.9907C60.5678 26.2996 60.3352 26.7243 60.1544 27.2649C59.9994 27.8054 59.9219 28.4876 59.9219 29.3113V38.7133C59.9219 39.1932 59.5329 39.5821 59.0531 39.5821H55.4426C54.9628 39.5821 54.5738 39.1932 54.5738 38.7133V29.3499C54.5738 27.7797 54.3025 26.6857 53.7599 26.0679C53.2174 25.4501 52.4294 25.1412 51.3959 25.1412C50.6467 25.1412 49.9749 25.4887 49.3807 26.1837C48.7865 26.8787 48.4894 27.9599 48.4894 29.4271V38.7133C48.4894 39.1932 48.1004 39.5821 47.6206 39.5821H44.0101C43.5303 39.5821 43.1413 39.1932 43.1413 38.7133V21.2993C43.1413 20.8195 43.5303 20.4305 44.0101 20.4305H47.1455C47.491 20.4305 47.8036 20.6352 47.9418 20.9518L47.9927 21.0685C48.234 21.6215 48.9565 21.766 49.4658 21.4427C49.8032 21.2287 50.1623 21.0457 50.5433 20.8939C51.3443 20.585 52.1969 20.4305 53.1011 20.4305C53.5662 20.4305 54.0571 20.482 54.5738 20.585C55.0905 20.6622 55.5943 20.8166 56.0852 21.0483C56.5761 21.28 57.0411 21.5889 57.4804 21.975C57.6122 22.0772 57.7399 22.1876 57.8634 22.3063C58.3219 22.7469 59.1233 22.7496 59.5879 22.3154C59.6708 22.238 59.7563 22.1631 59.8444 22.0908C60.2836 21.7047 60.7615 21.3958 61.2783 21.1641C61.795 20.9067 62.3246 20.7265 62.8672 20.6236C63.4356 20.4949 63.9781 20.4305 64.4949 20.4305Z" stroke="white" stroke-width="0.5"/>
<path d="M80.1673 38.7133C80.1673 39.1932 79.7784 39.5821 79.2985 39.5821H75.688C75.2082 39.5821 74.8192 39.1932 74.8192 38.7133V21.2993C74.8192 20.8195 75.2082 20.4305 75.688 20.4305H79.2985C79.7784 20.4305 80.1673 20.8195 80.1673 21.2993V38.7133ZM77.4933 17.8049C76.6665 17.8049 75.9689 17.5217 75.4005 16.9554C74.8322 16.3891 74.548 15.6941 74.548 14.8704C74.548 14.0466 74.8322 13.3516 75.4005 12.7853C75.9689 12.1933 76.6665 11.8972 77.4933 11.8972C78.32 11.8972 79.0176 12.1933 79.586 12.7853C80.1544 13.3516 80.4386 14.0466 80.4386 14.8704C80.4386 15.6941 80.1544 16.3891 79.586 16.9554C79.0176 17.5217 78.32 17.8049 77.4933 17.8049Z" stroke="white" stroke-width="0.5"/>
<path d="M93.7673 20.4305C94.4907 20.4305 95.2917 20.5335 96.1701 20.7394C97.0485 20.9453 97.8753 21.3315 98.6504 21.8978C99.4255 22.4641 100.071 23.2492 100.588 24.2531C101.131 25.257 101.402 26.557 101.402 28.1529V38.7133C101.402 39.1932 101.013 39.5821 100.533 39.5821H96.8838C96.404 39.5821 96.0151 39.1932 96.0151 38.7133V28.346C96.0151 27.7539 95.9117 27.252 95.705 26.8401C95.5242 26.4283 95.2658 26.1065 94.93 25.8748C94.6199 25.6174 94.2582 25.4372 93.8448 25.3343C93.4315 25.2055 93.0181 25.1412 92.6047 25.1412C92.2688 25.1412 91.8942 25.2055 91.4808 25.3343C91.0933 25.4372 90.7187 25.6174 90.357 25.8748C90.0211 26.1322 89.7369 26.4669 89.5044 26.8787C89.2718 27.2906 89.1556 27.7797 89.1556 28.346V38.7133C89.1556 39.1932 88.7666 39.5821 88.2868 39.5821H84.6763C84.1965 39.5821 83.8075 39.1932 83.8075 38.7133V21.2993C83.8075 20.8195 84.1965 20.4305 84.6763 20.4305H87.8569C88.179 20.4305 88.4746 20.6087 88.6251 20.8935L88.6939 21.0239C88.9387 21.4872 89.5344 21.6266 89.9985 21.3832C90.3899 21.178 90.8065 21.002 91.2483 20.8552C92.0234 20.5721 92.8631 20.4305 93.7673 20.4305Z" stroke="white" stroke-width="0.5"/>
<path d="M123.593 20.4305C124.072 20.4305 124.461 20.8195 124.461 21.2993V38.7133C124.461 39.1932 124.072 39.5821 123.593 39.5821H120.423C120.085 39.5821 119.789 39.3544 119.702 39.0274C119.543 38.4244 118.732 38.2593 118.247 38.6515C117.746 39.0564 117.195 39.3538 116.594 39.5435C115.561 39.8781 114.476 40.0455 113.339 40.0455C111.97 40.0455 110.704 39.788 109.541 39.2732C108.404 38.7326 107.409 38.0119 106.557 37.1109C105.704 36.1843 105.032 35.116 104.542 33.9061C104.077 32.6706 103.844 31.3577 103.844 29.9677C103.844 28.5777 104.077 27.2777 104.542 26.0679C105.032 24.8323 105.704 23.764 106.557 22.8631C107.409 21.9364 108.404 21.2156 109.541 20.7008C110.704 20.1602 111.97 19.8899 113.339 19.8899C114.579 19.8899 115.716 20.083 116.749 20.4691C117.322 20.6833 117.84 20.9687 118.302 21.3254C118.771 21.688 119.535 21.5284 119.698 20.9582C119.788 20.6458 120.073 20.4305 120.398 20.4305H123.593ZM119.113 30.0449C119.113 29.041 118.971 28.2044 118.687 27.5351C118.429 26.8401 118.067 26.2867 117.602 25.8748C117.163 25.4372 116.633 25.1283 116.013 24.9481C115.419 24.7422 114.773 24.6392 114.075 24.6392C113.378 24.6392 112.719 24.7808 112.099 25.064C111.504 25.3471 110.975 25.7332 110.51 26.2223C110.045 26.6857 109.683 27.252 109.425 27.9213C109.166 28.5648 109.037 29.2469 109.037 29.9677C109.037 30.7142 109.166 31.4092 109.425 32.0528C109.683 32.6963 110.045 33.2626 110.51 33.7517C110.975 34.215 111.504 34.5883 112.099 34.8714C112.719 35.1546 113.378 35.2962 114.075 35.2962C115.47 35.2962 116.646 34.8714 117.602 34.022C118.584 33.1468 119.087 31.8211 119.113 30.0449Z" stroke="white" stroke-width="0.5"/>
<path d="M132.537 21.6564C132.634 22.1692 133.344 22.3181 133.7 21.9364C134.036 21.5503 134.437 21.2156 134.902 20.9325C135.367 20.6236 135.896 20.379 136.491 20.1988C137.085 20.0187 137.757 19.9286 138.506 19.9286C139.197 19.9286 139.977 20.0243 140.844 20.2156C141.262 20.3079 141.534 20.7061 141.489 21.1321L141.156 24.2716C141.106 24.7412 140.667 25.0719 140.211 24.9481C139.978 24.8966 139.72 24.858 139.436 24.8323C139.152 24.7808 138.893 24.7551 138.661 24.7551C137.834 24.7551 137.059 24.8709 136.336 25.1026C135.638 25.3343 135.031 25.656 134.514 26.0679C133.997 26.4797 133.584 26.9817 133.274 27.5738C132.964 28.1401 132.809 28.7579 132.809 29.4271V38.7133C132.809 39.1932 132.42 39.5821 131.94 39.5821H128.33C127.85 39.5821 127.461 39.1932 127.461 38.7133V21.2993C127.461 20.8195 127.85 20.4305 128.33 20.4305H131.64C132.026 20.4305 132.357 20.7048 132.429 21.0837L132.537 21.6564Z" stroke="white" stroke-width="0.5"/>
<path d="M140.143 36.4314C140.652 36.7928 140.907 37.3071 140.907 37.9743C140.907 38.2801 140.833 38.5674 140.685 38.8361C140.546 39.1049 140.351 39.3412 140.101 39.5451C139.851 39.7489 139.559 39.9111 139.225 40.0316C138.892 40.1428 138.535 40.1984 138.155 40.1984C137.868 40.1984 137.585 40.1613 137.307 40.0872C137.038 40.013 136.788 39.9111 136.556 39.7814C136.325 39.6516 136.121 39.4987 135.945 39.3226C135.778 39.1373 135.653 38.9334 135.569 38.711C135.782 38.6091 136.019 38.4979 136.278 38.3774C136.538 38.2477 136.765 38.1318 136.959 38.0299C137.043 38.1689 137.173 38.2987 137.349 38.4191C137.525 38.5303 137.766 38.5859 138.071 38.5859C138.386 38.5859 138.618 38.5118 138.766 38.3635C138.915 38.2153 138.989 38.0762 138.989 37.9465C138.989 37.8538 138.938 37.7704 138.836 37.6963C138.734 37.6129 138.618 37.548 138.488 37.5017C138.303 37.4276 138.15 37.3905 138.03 37.3905C137.909 37.3812 137.77 37.3534 137.613 37.3071C137.112 37.1866 136.728 37.0291 136.459 36.8345C136.199 36.6306 136.01 36.4267 135.889 36.2229C135.769 36.019 135.699 35.8244 135.681 35.6391C135.671 35.4537 135.667 35.3054 135.667 35.1942C135.667 34.8977 135.732 34.6151 135.861 34.3463C135.991 34.0776 136.167 33.8459 136.389 33.6513C136.621 33.4474 136.885 33.2853 137.182 33.1648C137.488 33.0443 137.812 32.9841 138.155 32.9841C138.442 32.9841 138.715 33.0258 138.975 33.1092C139.234 33.1926 139.471 33.3084 139.684 33.4567C139.897 33.605 140.078 33.781 140.226 33.9849C140.383 34.1888 140.499 34.4158 140.573 34.666L139.086 35.1664C139.031 34.9996 138.915 34.8653 138.739 34.7633C138.572 34.6614 138.391 34.6104 138.197 34.6104C138.002 34.6104 137.844 34.6753 137.724 34.805C137.603 34.9348 137.543 35.0645 137.543 35.1942C137.543 35.3518 137.599 35.4769 137.71 35.5695C137.83 35.653 137.96 35.7132 138.099 35.7503C138.201 35.7688 138.298 35.7873 138.391 35.8059C138.493 35.8151 138.59 35.829 138.683 35.8476C139.007 35.9217 139.285 36.0051 139.517 36.0978C139.758 36.1904 139.966 36.3016 140.143 36.4314Z" stroke="white" stroke-width="0.5"/>
<path d="M144.332 37.5712C144.332 37.8955 144.429 38.1457 144.623 38.3218C144.827 38.4979 145.091 38.5859 145.416 38.5859C145.675 38.5859 145.935 38.535 146.194 38.433V40.0455C145.963 40.1196 145.717 40.1798 145.457 40.2262C145.198 40.2818 144.939 40.3096 144.679 40.3096C144.383 40.3096 144.1 40.2725 143.831 40.1984C143.562 40.1242 143.321 39.9991 143.108 39.8231C142.895 39.6377 142.724 39.3968 142.594 39.1002C142.474 38.7944 142.413 38.4191 142.413 37.9743V34.8606H141.426V33.5679L142.413 33.1509V31.6079H144.332V33.1509H146.194V34.8606H144.332V37.5712Z" stroke="white" stroke-width="0.5"/>
<path d="M151.335 33.1509H153.253V40.0455H151.613L151.335 39.5173C151.112 39.6748 150.857 39.8045 150.57 39.9065C150.292 39.9991 149.991 40.0455 149.667 40.0455C149.416 40.0455 149.129 40.0084 148.805 39.9343C148.49 39.8601 148.193 39.7211 147.915 39.5173C147.637 39.3134 147.401 39.0307 147.206 38.6693C147.021 38.3079 146.928 37.8399 146.928 37.2654V33.1509H148.86V37.1959C148.86 37.409 148.893 37.5897 148.958 37.738C149.032 37.8863 149.125 38.0067 149.236 38.0994C149.356 38.1828 149.491 38.2477 149.639 38.294C149.787 38.3311 149.94 38.3496 150.098 38.3496C150.218 38.3496 150.348 38.3311 150.487 38.294C150.635 38.2477 150.769 38.1782 150.89 38.0855C151.02 37.9928 151.126 37.8724 151.21 37.7241C151.293 37.5758 151.335 37.3998 151.335 37.1959V33.1509Z" stroke="white" stroke-width="0.5"/>
<path d="M161.329 29.8982V40.0455H159.688L159.41 39.4477C159.197 39.6702 158.901 39.8555 158.521 40.0038C158.15 40.1428 157.761 40.2123 157.353 40.2123C156.862 40.2123 156.408 40.1196 155.991 39.9343C155.574 39.7397 155.212 39.4802 154.907 39.1558C154.61 38.8222 154.374 38.4377 154.198 38.0021C154.031 37.5573 153.948 37.0847 153.948 36.5843C153.948 36.0839 154.031 35.6159 154.198 35.1803C154.374 34.7355 154.61 34.351 154.907 34.0266C155.212 33.693 155.574 33.4335 155.991 33.2482C156.408 33.0536 156.862 32.9563 157.353 32.9563C157.789 32.9563 158.173 33.0072 158.507 33.1092C158.85 33.2111 159.151 33.3826 159.41 33.6235V29.8982H161.329ZM159.41 36.6121C159.41 36.2507 159.364 35.9495 159.271 35.7086C159.179 35.4583 159.049 35.2591 158.882 35.1108C158.715 34.9533 158.521 34.8421 158.298 34.7772C158.085 34.7031 157.854 34.666 157.603 34.666C157.353 34.666 157.117 34.717 156.894 34.8189C156.681 34.9209 156.491 35.0599 156.325 35.2359C156.167 35.4027 156.042 35.6066 155.949 35.8476C155.857 36.0792 155.81 36.3248 155.81 36.5843C155.81 36.853 155.857 37.1032 155.949 37.3349C156.042 37.5666 156.167 37.7704 156.325 37.9465C156.491 38.1133 156.681 38.2477 156.894 38.3496C157.117 38.4516 157.353 38.5025 157.603 38.5025C158.104 38.5025 158.525 38.3496 158.868 38.0438C159.22 37.7287 159.401 37.2515 159.41 36.6121Z" stroke="white" stroke-width="0.5"/>
<path d="M164.524 40.0455H162.605V33.1509H164.524V40.0455ZM163.564 32.2057C163.268 32.2057 163.018 32.1037 162.814 31.8999C162.61 31.696 162.508 31.4458 162.508 31.1492C162.508 30.8527 162.61 30.6025 162.814 30.3986C163.018 30.1855 163.268 30.0789 163.564 30.0789C163.861 30.0789 164.111 30.1855 164.315 30.3986C164.519 30.6025 164.621 30.8527 164.621 31.1492C164.621 31.4458 164.519 31.696 164.315 31.8999C164.111 32.1037 163.861 32.2057 163.564 32.2057Z" stroke="white" stroke-width="0.5"/>
<path d="M169.207 32.9563C169.698 32.9563 170.161 33.0536 170.597 33.2482C171.033 33.4335 171.413 33.693 171.737 34.0266C172.061 34.351 172.316 34.7355 172.501 35.1803C172.696 35.6159 172.793 36.0839 172.793 36.5843C172.793 37.0847 172.696 37.5573 172.501 38.0021C172.316 38.4377 172.061 38.8222 171.737 39.1558C171.413 39.4802 171.033 39.7397 170.597 39.9343C170.161 40.1196 169.698 40.2123 169.207 40.2123C168.707 40.2123 168.239 40.1196 167.803 39.9343C167.368 39.7397 166.988 39.4802 166.663 39.1558C166.339 38.8222 166.079 38.4377 165.885 38.0021C165.699 37.5573 165.607 37.0847 165.607 36.5843C165.607 36.0839 165.699 35.6159 165.885 35.1803C166.079 34.7355 166.339 34.351 166.663 34.0266C166.988 33.693 167.368 33.4335 167.803 33.2482C168.239 33.0536 168.707 32.9563 169.207 32.9563ZM169.207 38.5303C169.439 38.5303 169.652 38.484 169.846 38.3913C170.05 38.2987 170.226 38.1735 170.375 38.016C170.532 37.8492 170.653 37.6546 170.736 37.4322C170.829 37.2005 170.875 36.9457 170.875 36.6677C170.875 36.3897 170.829 36.1302 170.736 35.8893C170.653 35.6483 170.532 35.4398 170.375 35.2637C170.226 35.0784 170.05 34.9348 169.846 34.8328C169.652 34.7216 169.439 34.666 169.207 34.666C168.975 34.666 168.758 34.7216 168.554 34.8328C168.35 34.9348 168.169 35.0784 168.012 35.2637C167.863 35.4398 167.743 35.6483 167.65 35.8893C167.567 36.1302 167.525 36.3897 167.525 36.6677C167.525 36.9457 167.567 37.2005 167.65 37.4322C167.743 37.6546 167.863 37.8492 168.012 38.016C168.169 38.1735 168.35 38.2987 168.554 38.3913C168.758 38.484 168.975 38.5303 169.207 38.5303Z" stroke="white" stroke-width="0.5"/>
</svg>
