<svg width="12" height="12" viewBox="0 0 12 12" fill="none" xmlns="http://www.w3.org/2000/svg">
<rect width="3" height="3" rx="1.5" fill="black" fill-opacity="0.07"/>
<rect y="3" width="3" height="3" rx="1.5" fill="black" fill-opacity="0.12"/>
<rect y="6" width="3" height="3" rx="1.5" fill="black" fill-opacity="0.07"/>
<rect y="9" width="3" height="3" rx="1.5" fill="black" fill-opacity="0.12"/>
<rect x="3" width="3" height="3" rx="1.5" fill="black" fill-opacity="0.12"/>
<rect x="3" y="3" width="3" height="3" rx="1.5" fill="black" fill-opacity="0.07"/>
<rect x="3" y="6" width="3" height="3" rx="1.5" fill="black" fill-opacity="0.12"/>
<rect x="3" y="9" width="3" height="3" rx="1.5" fill="black" fill-opacity="0.07"/>
<rect x="6" width="3" height="3" rx="1.5" fill="black" fill-opacity="0.07"/>
<rect x="6" y="3" width="3" height="3" rx="1.5" fill="black" fill-opacity="0.12"/>
<rect x="6" y="6" width="3" height="3" rx="1.5" fill="black" fill-opacity="0.07"/>
<rect x="6" y="9" width="3" height="3" rx="1.5" fill="black" fill-opacity="0.12"/>
<rect x="9" width="3" height="3" rx="1.5" fill="black" fill-opacity="0.12"/>
<rect x="9" y="3" width="3" height="3" rx="1.5" fill="black" fill-opacity="0.07"/>
<rect x="9" y="6" width="3" height="3" rx="1.5" fill="black" fill-opacity="0.12"/>
<rect x="9" y="9" width="3" height="3" rx="1.5" fill="black" fill-opacity="0.07"/>
</svg>
